<mxfile host="app.diagrams.net" agent="Mozilla/5.0 (Windows NT 10.0; Win64; x64) AppleWebKit/537.36 (KHTML, like Gecko) Chrome/134.0.0.0 Safari/537.36" version="26.1.1">
  <diagram name="Page-1" id="5hZTeZGNU4twaAOevTb-">
    <mxGraphModel dx="656" dy="761" grid="1" gridSize="10" guides="1" tooltips="1" connect="1" arrows="1" fold="1" page="1" pageScale="1" pageWidth="850" pageHeight="1100" math="0" shadow="0">
      <root>
        <mxCell id="0" />
        <mxCell id="1" parent="0" />
        <mxCell id="gqA5AUW5io7_Dx7awm-M-6" value="" style="edgeStyle=orthogonalEdgeStyle;rounded=0;orthogonalLoop=1;jettySize=auto;html=1;" edge="1" parent="1" source="gqA5AUW5io7_Dx7awm-M-3" target="gqA5AUW5io7_Dx7awm-M-5">
          <mxGeometry relative="1" as="geometry" />
        </mxCell>
        <mxCell id="gqA5AUW5io7_Dx7awm-M-3" value="Scheduled trigger (weekly - 6am -every Monday)" style="ellipse;whiteSpace=wrap;html=1;" vertex="1" parent="1">
          <mxGeometry x="365" y="10" width="120" height="110" as="geometry" />
        </mxCell>
        <mxCell id="gqA5AUW5io7_Dx7awm-M-9" value="" style="edgeStyle=orthogonalEdgeStyle;rounded=0;orthogonalLoop=1;jettySize=auto;html=1;" edge="1" parent="1" source="gqA5AUW5io7_Dx7awm-M-5" target="gqA5AUW5io7_Dx7awm-M-8">
          <mxGeometry relative="1" as="geometry" />
        </mxCell>
        <mxCell id="gqA5AUW5io7_Dx7awm-M-5" value="&lt;span style=&quot;box-sizing: border-box; font-family: &amp;quot;Open Sans&amp;quot;, &amp;quot;Salesforce Sans&amp;quot;, sans-serif; -webkit-font-smoothing: antialiased; flex: 0 1 auto; min-height: 1px; min-width: 1px; color: rgb(26, 26, 26);&quot; class=&quot;flex-shrink&quot;&gt;&lt;div style=&quot;box-sizing: border-box; -webkit-font-smoothing: antialiased; overflow-wrap: break-word;&quot; class=&quot;word-wrap&quot;&gt;&lt;span style=&quot;box-sizing: border-box; -webkit-font-smoothing: antialiased; flex: 0 1 auto; min-height: 1px; min-width: 1px; color: rgb(26, 26, 26);&quot; class=&quot;flex-shrink&quot;&gt;&lt;div style=&quot;box-sizing: border-box; -webkit-font-smoothing: antialiased; overflow-wrap: break-word;&quot; class=&quot;word-wrap&quot;&gt;GET Access Token Okta&lt;/div&gt;&lt;div&gt;&lt;br&gt;&lt;/div&gt;&lt;/span&gt;&lt;/div&gt;&lt;/span&gt;" style="whiteSpace=wrap;html=1;align=center;" vertex="1" parent="1">
          <mxGeometry x="365" y="160" width="120" height="60" as="geometry" />
        </mxCell>
        <mxCell id="gqA5AUW5io7_Dx7awm-M-11" value="" style="edgeStyle=orthogonalEdgeStyle;rounded=0;orthogonalLoop=1;jettySize=auto;html=1;" edge="1" parent="1" source="gqA5AUW5io7_Dx7awm-M-8" target="gqA5AUW5io7_Dx7awm-M-10">
          <mxGeometry relative="1" as="geometry" />
        </mxCell>
        <mxCell id="gqA5AUW5io7_Dx7awm-M-8" value="GET Data Subjects" style="whiteSpace=wrap;html=1;" vertex="1" parent="1">
          <mxGeometry x="365" y="270" width="120" height="60" as="geometry" />
        </mxCell>
        <mxCell id="gqA5AUW5io7_Dx7awm-M-14" style="edgeStyle=orthogonalEdgeStyle;rounded=0;orthogonalLoop=1;jettySize=auto;html=1;" edge="1" parent="1" source="gqA5AUW5io7_Dx7awm-M-10" target="gqA5AUW5io7_Dx7awm-M-15">
          <mxGeometry relative="1" as="geometry">
            <mxPoint x="425" y="500" as="targetPoint" />
          </mxGeometry>
        </mxCell>
        <mxCell id="gqA5AUW5io7_Dx7awm-M-10" value="&lt;pre style=&quot;font-family: var(--ds-font-family-code); overflow: auto; padding: calc(var(--ds-md-zoom)*8px)calc(var(--ds-md-zoom)*12px); text-wrap-mode: wrap; word-break: break-all; margin-top: 0px !important; margin-bottom: 0px !important;&quot;&gt;&lt;font style=&quot;color: rgb(0, 0, 0); font-size: 10px;&quot;&gt;Parse &amp;amp; Group by Email (Latest Consent)&lt;/font&gt;&lt;/pre&gt;" style="whiteSpace=wrap;html=1;align=center;" vertex="1" parent="1">
          <mxGeometry x="365" y="380" width="120" height="60" as="geometry" />
        </mxCell>
        <mxCell id="gqA5AUW5io7_Dx7awm-M-18" value="" style="edgeStyle=orthogonalEdgeStyle;rounded=0;orthogonalLoop=1;jettySize=auto;html=1;" edge="1" parent="1" source="gqA5AUW5io7_Dx7awm-M-15" target="gqA5AUW5io7_Dx7awm-M-17">
          <mxGeometry relative="1" as="geometry" />
        </mxCell>
        <mxCell id="gqA5AUW5io7_Dx7awm-M-33" style="edgeStyle=orthogonalEdgeStyle;rounded=0;orthogonalLoop=1;jettySize=auto;html=1;exitX=1;exitY=0.5;exitDx=0;exitDy=0;entryX=1;entryY=0.5;entryDx=0;entryDy=0;" edge="1" parent="1" source="gqA5AUW5io7_Dx7awm-M-15" target="gqA5AUW5io7_Dx7awm-M-29">
          <mxGeometry relative="1" as="geometry">
            <Array as="points">
              <mxPoint x="640" y="530" />
              <mxPoint x="640" y="995" />
            </Array>
          </mxGeometry>
        </mxCell>
        <mxCell id="gqA5AUW5io7_Dx7awm-M-15" value="&lt;font&gt;Apply to Each Email&lt;/font&gt;" style="shape=hexagon;perimeter=hexagonPerimeter2;whiteSpace=wrap;html=1;fixedSize=1;" vertex="1" parent="1">
          <mxGeometry x="365" y="490" width="120" height="80" as="geometry" />
        </mxCell>
        <mxCell id="gqA5AUW5io7_Dx7awm-M-22" style="edgeStyle=orthogonalEdgeStyle;rounded=0;orthogonalLoop=1;jettySize=auto;html=1;entryX=0.5;entryY=0;entryDx=0;entryDy=0;" edge="1" parent="1" source="gqA5AUW5io7_Dx7awm-M-17" target="gqA5AUW5io7_Dx7awm-M-21">
          <mxGeometry relative="1" as="geometry" />
        </mxCell>
        <mxCell id="gqA5AUW5io7_Dx7awm-M-32" style="edgeStyle=orthogonalEdgeStyle;rounded=0;orthogonalLoop=1;jettySize=auto;html=1;exitX=0;exitY=0.5;exitDx=0;exitDy=0;entryX=0;entryY=0.5;entryDx=0;entryDy=0;" edge="1" parent="1" source="gqA5AUW5io7_Dx7awm-M-17" target="gqA5AUW5io7_Dx7awm-M-15">
          <mxGeometry relative="1" as="geometry" />
        </mxCell>
        <mxCell id="gqA5AUW5io7_Dx7awm-M-17" value="HTTP GET Reltio (fetch master_ids)" style="whiteSpace=wrap;html=1;" vertex="1" parent="1">
          <mxGeometry x="365" y="610" width="120" height="60" as="geometry" />
        </mxCell>
        <mxCell id="gqA5AUW5io7_Dx7awm-M-24" value="" style="edgeStyle=orthogonalEdgeStyle;rounded=0;orthogonalLoop=1;jettySize=auto;html=1;" edge="1" parent="1" source="gqA5AUW5io7_Dx7awm-M-21" target="gqA5AUW5io7_Dx7awm-M-23">
          <mxGeometry relative="1" as="geometry" />
        </mxCell>
        <mxCell id="gqA5AUW5io7_Dx7awm-M-27" style="edgeStyle=orthogonalEdgeStyle;rounded=0;orthogonalLoop=1;jettySize=auto;html=1;exitX=1;exitY=0.5;exitDx=0;exitDy=0;entryX=1;entryY=0.5;entryDx=0;entryDy=0;" edge="1" parent="1" source="gqA5AUW5io7_Dx7awm-M-21" target="gqA5AUW5io7_Dx7awm-M-26">
          <mxGeometry relative="1" as="geometry" />
        </mxCell>
        <mxCell id="gqA5AUW5io7_Dx7awm-M-21" value="Apply to each master_id" style="shape=hexagon;perimeter=hexagonPerimeter2;whiteSpace=wrap;html=1;fixedSize=1;" vertex="1" parent="1">
          <mxGeometry x="460" y="710" width="120" height="80" as="geometry" />
        </mxCell>
        <mxCell id="gqA5AUW5io7_Dx7awm-M-28" style="edgeStyle=orthogonalEdgeStyle;rounded=0;orthogonalLoop=1;jettySize=auto;html=1;exitX=0.5;exitY=1;exitDx=0;exitDy=0;entryX=0;entryY=0.5;entryDx=0;entryDy=0;" edge="1" parent="1" source="gqA5AUW5io7_Dx7awm-M-23" target="gqA5AUW5io7_Dx7awm-M-21">
          <mxGeometry relative="1" as="geometry" />
        </mxCell>
        <mxCell id="gqA5AUW5io7_Dx7awm-M-23" value="HTTP PATCH Reltio (Update Consent)" style="whiteSpace=wrap;html=1;" vertex="1" parent="1">
          <mxGeometry x="460" y="810" width="120" height="60" as="geometry" />
        </mxCell>
        <mxCell id="gqA5AUW5io7_Dx7awm-M-26" value="End" style="ellipse;whiteSpace=wrap;html=1;aspect=fixed;" vertex="1" parent="1">
          <mxGeometry x="495" y="920" width="50" height="50" as="geometry" />
        </mxCell>
        <mxCell id="gqA5AUW5io7_Dx7awm-M-29" value="End" style="ellipse;whiteSpace=wrap;html=1;aspect=fixed;" vertex="1" parent="1">
          <mxGeometry x="400" y="970" width="50" height="50" as="geometry" />
        </mxCell>
        <mxCell id="gqA5AUW5io7_Dx7awm-M-35" value="" style="shape=image;verticalLabelPosition=bottom;labelBackgroundColor=default;verticalAlign=top;aspect=fixed;imageAspect=0;image=data:image/png,iVBORw0KGgoAAAANSUhEUgAAAjgAAAGBCAYAAABrWMvWAAAAAXNSR0IArs4c6QAAAARnQU1BAACxjwv8YQUAAAAJcEhZcwAADsMAAA7DAcdvqGQAAJuhSURBVHhe7Z0FfBzXtf+PmJmZmWVmdgyJHWZooKFymv8rvbbpK7wyvaZp0mCTJmmcOOCAmZlt2TLIlmzJssXM5P/9nZ2RVqyVZFtZn28+E+/OXs3euXN3zu+ec+4dC/+Q+MskCIIgCIJgRlhq/wqCIAiCIJgNInAEQRAEQTA7ROAIgiAIgmB2iMARBEEQBMHsEIEjCIIgCILZIQJHEARBEASzQwSOIAiCIAhmhwgcQRAEQRDMDhE4giAIgiCYHSJwBEEQBEEwO0TgCIIgCIJgdojAEQRBEATB7BCBIwiCIAiC2SECRxAEQRAEs8PCPyT+svZ6QOydnClh3FSysbHn99UVpXTq0C5+LQiCIAiCMJYYsgfH2c2TMmYsonFzlvKWOGGm9okgCIIgCMLYwuQQVc6RPfTCfz9BH770G22PIAiCIAjC2EJycARBEARBMDtE4AiCIAiCYHaIwBEEQRAEwewQgSMIgiAIgtkhAkcQBEEQBLNDBI4gCIIgCGaHCBxBEARBEMwOETiCIAiCIJgdInAEQRAEQTA7ROAIgiAIgmB2iMARBEEQBMHsEIEjCIIgCILZIQJHEARBEASzQwSOIAiCIAhmh8kCJyA8lm5+7FmavvRubY8gCIIgCMLYYsgC53JHBzU1NpCNrR15+gWRu7ev9okgCIIgCMLYwsI/JP6y9loQBEEQBMEskBwcQRAEQRDMDhE4giAIgiCYHSJwBEEQBEEwO0TgCIIgCIJgdojAEQRBEATB7BCBIwiCIAiC2SECRxAEQRAEs0MEjiAIgiAIZocIHEEQBEEQzA4ROIIgCIIgmB0icARBEARBMDvGnMCxd3KmWTc/QPd8+2fk5R+s7RUEQRAEQRg6Y0rg2NjZ0aJ7nqSopEw6c3Q/1ddWaZ8IgiAIgiAMnTElcOIyppBfSBSd2L+N9m1cRU31ddongiAIgiAIQ2dMCRz/kEjq6Gij8qIL2h5BEARBEATTGVMCx9nNS3slCIIgCIIwfMaUwLGwHFPVEQRBEAThS8qYVBTt7e3aK0EQBEEQBNMZMwLH3cefnFzdqbG+lkounNP2CoIgCIIgmM41Fzhu3n40dfEdtOwr3yYHJ2fK2r2JaqvKtU8FQRAEQRBM55oLHL+gMEqaOJMcnN0o78QRyt63VftEEARBEARheFg5u3k/p72+JpQXF1LW7o1ka+9AcelTyMs3kM4eO6g+uWwoIAiCIAiCYCJjIgentbmZdq9ZSRXFF8g/PIZ8AkO1TwRBEARBEExnzCQZt7W2UFtbG1nb2JC7t6+2VxAEQRAEwXTGjMARBEEQBEEYLcaUwGlqqNVeCYIgCIIgDJ8xJXCqSovI0sqa7J1ctD2CIAiCIAimM6YEDqaJNzfWU1RyJtnY2Wl7BUEQBEEQTOOaTxM3pq66kiwtLSk6ZQLFZUylS+fPUENttfapIAiCIAjC0LDwD4kfcwvOuLh7UUh0IuWeOERN9XXaXkEQBEEQhKExJgWOIAiCIAjCSJBp4oIgCIIgmB0icARBEARBMDtE4AiCIAiCYHaIwBEEQRAEwewQgSMIgiAIgtkhAkcQBEEQBLNDBI4gCIIgCGaHCBxBEARBEMwOETiCIAiCIJgdInAEQRAEQTA7xtTDNkcbOwcncvf2o+bGBrKwtCRPv0DqaG+n9rZWrcSXF5ybh28AObq4dW529o58rkR9P31jrLSHo5Mdefu7UWN9M1laWpB/sIeqRwe1trZrJQbG1cOJvP1cVb2H/jeCYAoWFhbkG+hBVtZW1NzUyn3OzdOZGuqatRKCIIx1zFrgpE+bT7Nuvp/yc46Tg7MLLX/kO3RZGXQ8pXys4xcSQXNueZBs7OyptPC8trcLnNvCux+npAkzO7fgmETKPX6QWpubtFLdGSvtMXNRCt328HQ6lXWBnF0d6InvL2WBk3e6SCsxMLc9NI1ueXCaEmqtQ/6bq42VlSVlTI6khbeMo8T0ELK1taaSS9V0+bI8+u3LAATNY88uIv9Ad8o6cI773MzFqZS1/xwLHkEQxj4SohqjhCekUUhMEkUkZmh7unNs71Za8fdf8rbqtT9RTWWZ9olwrQmN8qH/+s0dSsTNIHcvJ/IP8aQ7vzqLvvHT5eTh7aKVujokpofS/OUZ7DETBEG4njB7gdPW1tYZgmlT/9ZWV/Drsc7BLV/Qiud/Qev+809tT3eaG+up7GI+b5WlRdTR0aF9MjBjpT3aWtt5AwgzVZbX8esvOxAwdykxU3qpin713XfpL899TH/68Yf0+x9+QBbq8zsfm0E2tlaGwleB9EmRNPfGNAqN8Nb2CKbQ2NjlrUFItbYKIWBBEL4MmL3AaW1pppamRsMbRAcGCRG4eviQd2AoObm6a3v6BvksKId/Acp7B4SQjZ0dv+8J9uPzgcoY09rcTGWXCljIjCamtoellTUljp/BG16PFs1NbZ3GwwJ1GKAedvY2FBjqxTkRyI0YDOT4BIUNXl4vh38BwhL4HnxfX+j1GKjM4tvGUUtzG735/EbOE3r0uzfQd35+C8UkBtFHb+0kTyWAYlOCtdJdIKQVEOI54LF19PwQ47qPFnqboC6o00AMpT2GC67FUK4hGGo99HbTj6m3uZePq1aiNzWVXb8/hBclxCgIXx4s/EPizfYXC/Hh6OxKVWXFnFTr5uVDddUVLB56gnDQrOX3k4u7J7/HjayiqJA2rnydhQaITZtIs25+gOprq8nJxY2sbWypubmRygrzKSAsRgkAS/5s3X9eokvnDHkt9k7ONPfWhygkOpk/B5cvd9CFs6do0wevcXmdWx7/HvmHRmrvDOQc2UPrV7yqvesbiKtlj36XX3/yyh+ovqaKX/fElPbQyZi5kCYtuJXbY9fq9+nozg3aJ8MHRtTZzZG9HEgyhhCoqqjvldsAI7T0rok0bX6iamuD16O2ppEqy2opNNKXVr+/nzasOsz7gau7I931+CwlJgI7jWK9Kr/2o4O0c8MJfp85JYpuf2QG1aiROMrb2ForodVChefKKCI2QBk9C/7srec3UN7pYv4bGELk/IybFt1Zj/b2DjqyJ5dWvrGjs95+ge706LOLaP1Hh6ggr5QeU+KmWh2rvLhWGVIPeuUPa+jep+bQxfwK+vBfO2jeTek0b1k6Ze3LozglepxcHfg4rS3ttHVNFq354EAvgzp1XgItvDmzsyw+z8m+SP95aQvXG+jniHPri4b6ZnrpN59T4flybY/Wdl+dRVEJgdwGoL96DLU9hkOgEjV3qLpD3PR3DXWGWo+v/3gZC5n62kb2sOFccO7OLg4cQsT7AzvO0Hsvb+08T3y3T4C7+n00cHtBcNlYW1F5aQ1/LgjC2Mesk4wRimlqQOgDI68Oaqqv41lDPYlJnUDz7niUb267166kA5s+I4vLFhQcHU/BUfGUl32YE3e9/IMoPD6NvSBbV73NYSHfwDBlpC1pyydvsbcFQqe9rZ3yT2exAFp071MUFJlA504e5jJnsg4oY6JGmxGx5O0frATMPlUDw031sjpeRXGhEkc56qZeSe6+AVRZcpFysw/x5/1ha2dPcZlT+fWpQ7v6TTIeansYA49TSHSSMhxtdOboXlW/i9onwwchqfpaQx3R5niNGVE9mbcsg+YsTWMDt/5j1X6rs8jD05ki4wPYAJ1Rhl1PMoYBeuL7S5Rh9KZ9W3NYQEBIRKiyCWmhVKEMU9GFSjZ0iRlhbPw+UEawo+MyhYR7k5WlFX3w2nZqrG+iiDh/amu7TCePFPD33PXYTBo/I4aKL1TR+69to/07csjTx4US0kPI19+Nju47x3VIHhdOYVG+tFGJrpk3pChBaUMv/vpzsrW34f37lRFFqMhGGWMkrkaq74Gw8Q3yoFPHCunjt3ZRtTKoQaFeLDSam1oo/2wJHxugPZbcOZFF3gev76Ad645xkjaOEaTO4ejeXHU9lTAvq6NjB87Tns0nycXVkev6+Yp99Pl7+2j3ppO0b9tpKi6s6jTm8Ho89M0F6jsD6OTRAlrxylb1byG3Vcr4cPW5NZ1W9QOmtIepQHw8/K0F6jfl3nkNL+SVU3iMH9ejrraZLighCkypx8RZcUrIONNhJXy2rz1GYep4Xr4udOzgeVr/ySG+Nj6qPK633i8BXuuz9NBfGhtkBpUgfJkw+xDVYECEpE6bTx2X22nDipfp2O7NVFyQR5s/fpNOHdxNrp6+FJU8TittoKQgl/KOq1G6EjEQDZfO59DZYweUeNmvbojNyiDYczkXDy9ycvOgovwztOH919irU5BznNa99zJVV5SSh18Qufv4cVkAcbJ3wye85Z8+xjOcrjVoj7f+8AN6588/ppyjEGNXBycXe8qYEkUtLa30n5e30JYvjtLprAv06p/W0glliHoybUEiGykYMBi7/LOltHN9thIC2/nzCTPj+F+d/DMldGz/OTp1JJ9zgfJOXVIGMVeN/vOoubmNHJQ4AZHx/spghrE4eul3n1P24XxDPf64hr0AcakhlJgZymURIsE04saGFgqL9mUBBsPorM6lqbG1M9zh5GbwvujAM/Hm3zawJ+YLJUI+eXsXC0+cv56vA+M/aVYs1VTVqzZYw3WFh+n1P6+jMycuUUiED4fBAL7zYn4516+luZWFDHJH8B7bpYIK9nTopE2MVEbeh7IP5vPxcFwc/19/W8+etcSMcBaQwJT2MJXJc+OV6Hftdg13bzrB179FXSN4aiBsgKn1gFjcu+UkHdx1liqVAMT12LHuOPeBi6o94AHSvUCCIJgH173ACYqMV8YjgCqLC6kw97S210DB2WxlaNrINzhC2zMwzchtMUr2rSy5RO/86cf08St/UEa0RdsLl3sVe0+sra3Jynp0cxeuBKhvf2GvK0VAsKcyqo5qdF6phMIlba/B49OsBIQxCHklpoVSY30LCxRjIGSqlZH2UiN7hCMGA6P0yx1d4Zh4ZSgdnGzZEBqP7iEiDu/OVUbRkmKTDDk1EEWoHwSNrZ01CwkAcQBPkU59tZYDpQEPlTHZh/KpvKSW83V8/A25YMnKWLt5OtG5U0VUeqkrrInvO33sAn9fcPjwEoljkoLUcYiO7s/j4+nge9auPEB7t55kryQwpT1MAcIlOj6Qmhpalbjqfg3P5RRzOPLQ7rN8fDCa9WgxSiQWBMF8uO4FDrwtFlhsLjSanvz5C/TUL17s3LDODDw8Lu5eWmnTQQ7OvNsfocd+8n/djt0z10bojqu7A1lbWVJlaW03o9sX1rYQilbk6GxH33xuOf3ujcc6t5/89T7yCXBTxtCOnJwNnjVTcHN3pNaWNior7hIVOrVV9Rxag9fBGHgCrIy8ARBgVWW1/NrNy5mKjQRKXyDnA4Ya/VJzWCgBY8Oh0Iyp0d3OD9vSOyeyQEAu03Dw8HbmfJu+znH/9hza/NnRThExnPYYCi7quLhGDfVNnblEOqgbvHHY8BpcqXoIgmA+XPcCRwdhKeTe9LVl79uqlTINzJZadM+TFJ0yjgpysuijl3/XuXYNpncLowtyUxDKWv/xoV7bps+OcLjlSoJZYRA3ECctTW2UnBlGi24fT4kZoWTnaMtr0ri6OdDZ7OHnMSEU09f5YUOOiSAIgmDguhc4zU1NHJK4fLmd9m38tDMHxnhDbsxwCI1JJp+gMF45eM07hplV+to1WI9G6J+aqkZqa+8gDx+XzryL/mhTI3mEUKwsLTlEtWblgV6bsRfCFDALCrORvP16L5Tn4ePKgqasyDCzBnkv8BLB23J41xlKVAJn3NQY2vz5EYqKC6AHvj6PDqr9584YZmf1Bzw+SPw19EvDPuTSIKkd4bm+zg8bxM9wQE6Krb01BYT09lRiCrXxlHFT2sMUkCOEdWYcXezJ27f7sXH9jad3gytVD0EQzIfrXuAUX8jlqdJe/qE8DdwYeGCSJs4a0ro1fWFl1XfSYkB4NLl5fTkWXrtS6+AMxqULFVRT2UB+wR4UnRig7TUYO3hDjEFI5/yZEs7JmL4gsZcgSp8cydOPhwNmFSG3J3l8OCc+60CAJI8L45DJ6eMXeB+SnzHrZtaiZFr38SH6/iOv0i+feYfWfXSI/vvJN+gHj73Gr3uiT/nWgccHs3wqymqptMiQ+3T2ZBHV1zVTTEoQRcR2JaYDJCBPnBnXrxC0srbsVvee5BwvRDIPpU6I6HYM5A5h2vvD317QmWRsSnv0BFO/segg/u0JwpBnTl4ke3Wc1Inh2l4DmOX09A+W0N2Pz1TCxXDLGkk9BEG4PjDraeJDAcm/mFYdFpdK4fGp5OjsRs1N9RQaa1gXJzZjMrU1N1NR/tnOaeJVpUU8dbvnezzwMk6Vry4v4fftHe0UnTyep4P7BoeTp08AxaRNoonzbiJ7RxfCDKxTh3dTg7YWTlzGFIpKyqSgyDhDefV37W1tvDYP9nn4BfA07Q51XN+gcCW+ZvJ+CCYkQiNh2drGRhnzGPJX+xrqatSIf2RhmfQZ82nakrsoNC6FWpoaOJR3NUB+BQwzpngnpoWQgzJijo72dOtD0ygmybDOjfE08UsXKikhNYSnOmOGTW11I3n5udKNd02kOcqoYk2Tw7vPkn+QB08TL7lYxVO19Wnj+nusBzNuegyVF9fw+6ryevU37pyIi8TW+tpmJU6d6LavTOdHMhzdk0ubPjvKdUBoqqmxhZ+1FZMcyHWwd7ChgFAvmjQ7ntfG0VdvBpgmHp0YSIGqDshBQf7JpFnxtODmcUpMWtDaDw/ShTzDtGgcy87elmKTgylZCSB4ifBdmVNj6NavTOMp6mVF1VSszsMY5LUkqPbDDC+sfYQ8nYwp0ewRQvI1KFPniqn3aLvgCG+1v45CI/14PRp4SHasz6bjBw1Trk1pD2Nc3Bzoke/cQGmTIik8xp/Xqun5oFSsF4RrGK2O7e7pTHW1jTxT6uYHppCdgy2tXanaQ5smbko9ME0cIujAjhxux57vMQUdj7LQ3w+X+Xc8Qjfc++SX5nl3gmDuXPcCB5QXXWDhAKEQEp3I3goIFyIL2rt2ZefidqYKHKw5U1FyiQIj4shPCRCsfePlF8jr6mA1YRcvHyq/WEClWj7OzGX3UWz6JEM5JW4sLSzJ2c2D32Nz8/Kjs5iKrgRZfOYUmjBvGe/3D8V0Yjve8Br78LDOsovnldEwrF8yXK7EOjhDpSC3lKdLxyijHq2Mb9rECFwSOnm4gIWJscBpamjh2Ud47lNkXCCNVyJl3NRoXhcFs2qwEB4Mak9BM5jAASfU9zk627MxxdRtHBcG+9Cus/ThmzupTZthBDBzCmvMwJBjgcIpcxMofVIUJ71mHzrPqxzr6AIH3oj4lGCavjCZRQboa2G73FNF6jybKVz9XUJ6KE2ek6DqFMiejP+8vJWP3xOsBeTm4chr+8SnKnGkhFBolC/PkILXC6BuJw7nk58Sf3EpIUpkxXFbY2HK9R8fpI2rjnA5HVPaQ8fa2ooypkapco5UVFjJYgJr9hiDa4j1gLDuDdaygShE3hIeqopVoHF8Y4Zaj6slcCKTMvh3W5h7UgSOIIwBzHol4+GAVYEdnF2ppbGRaipLtb0jB4+AsLW3V6PjkgFXDh6L6I+tuNpTxXWQ/4HF35C4O5SVZBGm8PJ15bAHhIvxmi8jQa8HGI3jYiVjJCFjCvTGT4+wlwmrCA/l2MiNsXe0odqapm6PE+gPvU3alJjBCtL9zUwbajlganugvJefmxKP1YOWRR4SZndh2vhg13y0r8twwUrkPoEhtPmjN+n04T3aXkEQrhUicAThGmEscIwfOSF8+cBSEssfMzwu5eOX/0C1VV2PwRAE4dpw3ScZC4IgjBTMlrSxseNwtogbQRgbiMARhGsEEn2RP4N/hS83uccP0hu//R5l7dqk7REE4VojISpBEARBEMwO8eAIgiAIgmB2iMARBEEQBMHsEIEjCIIgCILZIQJHEARBEASzQwSOIAiCIAhmhwgcQRAEQRDMDhE4giAIgiCYHSJwBEEQBEEwO0TgCIIgCIJgdojAEQRBEATB7BCBIwiCIAiC2WHWAsfOwYm8/IPJ0sqaN7zGPuHaYGNnR94BIeQdGNq56ddHuPa4evjwBox/O1cbLx9X3oCjkx0FhHiSldXIb1V29jZ8LPxrYWFBvoEe6nzlfiAI5oqVs5v3c9prsyN92nyadfP9lJ9znBycXWj5I9+hy+3tdOn8Ga3E1SUyKZOmLb2LmhsbqLq8WNt7/RCdPI4W3fc0pUyeQ0kTZvIWnTKer09DbbVWSrhWLHnwG6qPZtDJAzu6/Xau9rV59Ls3UMr4cNq79RTNXJRCtz08nU5lXaDa6kb+3D/Yg+54dCalqjJ5OSXU3NT9aexBYV5052Oqf2WG0bmc4s7P0yZE0ANfm08VJTVUX9dMjz27iPwD3SnrwDn+XBAE80JCVFeRmNQJFBKdQKGxydqe64u8k0fow5d+Syv+/kveyi7ma58IV4qwuFQaN2cpuXn7aXu+/BQXVpG1tRUljQujjMlR2t4upsxNpPjUEGpqaKWaqgZtryAI1xtmL3Da2tqovc0wgmtT/9ZWV/Dra8Hmj96iFc//gnav/UDbc33R2txMZZcKWNhgw7URriwxqeMpc+Yi8gsK0/YMTGtLs/aKqKmxgZrqa7V3V5fm5i6vTGN9M9XXNWnviC5fvkw7N2Sr/tROE2bGkpOLvfYJkU+AG8WmBFFtTSOX6UlHe7s6r65jlxXXaK8EQTA3zF7g4Ibd0mRwbdNlbPjf6OHk6s65JPh3MJob69nAw9CPJsiXQB08fALIwmLol1Sve39/h334DGX03IyBQJmhlr2SDHZexphSFuh5RKYceyi5LPpxh5r3Yko9TKGpvsvgQ0hgGwh7J2dKnTqfopLHjWo96rVwFOjoMGzGZB/Kp/NnS8jb14WSMrrE2/gZseTu6UTZB/PpYn65treL9vYOqq6s194Z3guCYJ5Y+IfEj67FH0PA8Ds6u1JVWTFZWFqSm5cP1VVXdBMYMELLHv0uv/7klT9QfU0Vvwbz73iEYtIm0d51H9GBLV/wvnGzFlPm7CW0d/3H6rOJysiEqhu7BRuC4oKztPadl6hey1nQj+3u5cvvdYyPpzNl0W2UNm0+Hdq2lvas/VDbayAwIpYW3fsU1VSW0seqjnr9nVzcaM5tD1NwVFyncWlUI+79G1fRsT1b+L0xtzz+PWUQ/WjbqncoY8Yi8vQP4rrDw7X5ozfp9OE9Wkmi5EmzaPzcm8jByUXbQ1RbVUFbPn6LCnKOa3sMxKZPUvW/Q7V1V9mB6qGj1+eT1/48KuEqGPzZtzzA/w7WHgjZ4Pr6KAEyUFkIlGUPf5vyc7KpraWF4jImdQqQhrpa2vzhv+j8qaP8XgffP/fWr3S2L2hrbaEjOzfQvvWfqL7SZVQhVGbedB9Fp4zrPG5fZU2pR6zql7NufoCsbWz5fU8gtPtqcwjT9vZW/g0Y/3aM69uTObc+RPGZU7lPrnvv5V5tMRyQYNza1q76ez0nGTu7OVLppapeYgshqnufmEPFFyvphV99SrZ2NvTUD29U9bajl3+3upfAQXIxxA+8Nh0dl8knwF3dDxqooX50BxyCIIwNzDrJGIa7qaFOvcJItEONTuvYRW2MrZ09xakbNDh1aJe6UXe5wpFwiRF1Ye7JzsTkwPAYColJosCoeKqtKKPtX7xHeccPkadvIPkEhanjOdA57SZ/WQ07O9rbqKwwny6dy6HWliZyV4bV+Hg6qFtEYiY5u3rQmaz9nWE1kDhxJgVFxFHWro10Me807zOIp2fUTTqETh3YRds+fZvKigooIDyW8y5qK8uoovgil9VJGDedXD191OcpZGVtTUWqDhfzcqilqYHOnTxCdUrAABjI6TfeQ23KaO1WYuvA5s84vBcQFk2hsSnq73I6hSDyimYtf4DaWwxl9274hBpra8g/NIqCoxOpqrRIGckiLtsT1MfByZlOHd494kRWF3cvWnzfU0ow+Xe2R6ky4AGqHhFJmaof1FNp4fnOsksf+DqXPZN1QIm2NzvLhiek87XAe+CoRGRcxmR1bUPZW3Fo6xpuD1xniFsIpDPH9rMoAbguSNZ19fCi7H3baMdn/+Fj+aq+ERKdxEYafQFAgCy5/+sUHp9C+aePK5H5L/7XNziCwlQ7G5c1pR41VWWUl32YsvdvIycnV3JRdcG1wYY6nTy4kypLLvUSLs2qH+j93/i3MxDBkQmqvuHqbxvVcbd3GyAMl8aG5s7E4NbWdjVg6PpNGlNWVENRiYEUFOZNFwsqKDohiNInRdCR3Xm0Z8tJrVQX7W0dfCxdKOE1ji8Ignkyej7l64zcYwfp41f+SOeUITl77ABtWvkGG1G/0MjOqegwNsd2b2ajj604P5f39wVCVxAOLh7eFBARo+01eKHClWCpr63k79FJnjyH3Lx86agSPZuVgS4uyOPv2vLJW/x5XOY0/rcnlpaWytDn07t/fY4+feOvbFRXvf4XZUi7BBeSoOF52L3uQzq+dwsfe/un77JxhJcmODJeK0nkFxLFYcA96z7isvAK7Nu4io7sWE82tnYscq4GEIFu3t3bA/XZuPJ1Fmex6RM7PTV62RMHdtCGFa90K9ve0U6pU+exiDCmprKcPn75D3R4+1puq7Xv/pNKCnPJ2c2T/IIjtVKkhGisEqnulHfiCLeZfuxNH76h6tHcLcEc4tA/LIrOnzhKq//9Ah8X13jtuy9SU2M9zzDT+5LOUOphnOvU2trMBr1RCUi8x1ZedIGF92iw/bN36e0//pje/ctP+VyvJjivHesN3sSJM+NY3GB2VF+5N4IgXH+IwBkmlcWF3UbA9bVVbJQsra3VyNxG22sap44YQkRxaZP4XwCxA9FzIecE1VYZXO666GlubKSzWV2iB5QoEVVfXUGunt7K6Hloe7vAyDx7/1b2UvRHbXUlhz+QV4EwmM6Oz9+jF/77iW7hNRi4N379LHthjKmtLOXvsrPvSgC9UkC4wMPV0tREuccPansNFKn2QEgw5+g+9lrBaxKqRBfKwmNnTGHuafby9BQtoLGutrP9Aa59rRIbFpYW3c6xrqZKnXcb+Suhi9CiTsGZE/TKz79NH770G20PUVTKBPbynT1+oFtfgjipLitmb5C7EmLGDLUeVxOEThH2uhYg1wa5OAlpIRQU7t1v7o0gCNcfInDGEBdysqmy9CKHuhBGAdFJmfzvuZws/hdAQEFI2Ts60W1P/YCe+sWLndtD3/8dufv4k72DI9kb5c/osHtec9H3x8Etn1P+6SwOZT3wX7+mB7/3W1p8/9McmtO9IMaEx6fRvc/8gp78+Qud9Zh3x6P95oCMNo4urmSn2gICs2eIRPeiYcNrO9Uu1nb21NhQR3VKyBkDsQBPh5VqX+RrDQeEEA9t+4Jzl5Y/+l169Md/plse/y/Or0K+jTHwcKGN0FbG1xBbQHg0CzI3z2ubsD3W0b04rS3t1FDbRPu3GUK4giAIInDGEDDA8MjAawLvCUSOf1g0ix6In54guRShigObPuu1Hdq2mhOqhwNCHJ+/+Ty9+9efKWGwhVqbGilUiZulD36Dbv7qd7t5deLSJ9P8Ox8jS0sr2rbq3c41bnaufp89ONcjh7aupdd//Szt/GIF50F5+gXS1MV30L3f+SXnRxnT2tJCWbs39XkND25dTcVa3pDQPwW5ZVRdiWThFiovlWnfgiAYEIGjYW01/NDSaIIcDMzCColN4nwNeAIgeiB+dNpaW6mjrY3zafCZnuNjvMHIDhSGGgpIEEYI6p2//JTe+O33OBEZOTfJU+ZqJYgSxs+gjsvttGnl6505ONjgCdGTOa80DbU11NxQz3kzyEsyBh4nTKXWp1NjFem25iZycHTuFcLD50jIbVftW11equ0dHhCJyEPCwoav/uIZ2rVmJdna2dH4uUs7PVvIXcIkq5KC3D6vIUQOQlXC0MBsKH21Y0EQhOte4CCkgVk/Ng4OnHuhA2PnYOSpuFogvwL5Nj4BofxIA0xdNk4uBsh3QMIywi0pU+ZwXY1B8iqmKg8HTA2+51s/o4e+//tux4BYyj91TImZDi6jg+n3PUF9EM6ysr46ghGhpcK8U2Rra8eeL2P8QiJo+WPfpbm3f4VDPhCK+WeyydbenuIypmilDARFxpKHXxB7voov9J8QPhCYNv3E/7xA6dMXansM9cvLPshtaGtrzzP3wAVVD+Q6JU6Y2St8hfYzTuYeCfiOvsKVowFE5ZVYB0cQBGGkmPU08aGCUFBwVAL5BoVTR0cbT7mdufw+/tfSyqrXNPGgqPheU737mm6OkXrixBmcEBwUGcfTaTFNvK2thT0K2Ofs7smzWrphZakMxnhOMs3NOkinj3RP4AXlxYUUFptMgcooB4bHUkNdDXsvpt5wG2XMvIHzcM4c3c/GVQfTspGvcv7kUf77voBXwcHJlUKiEzkHBwmz8MTEpk2ijBk3sLHM2rm+cwq6t38ITx8PUsYYoaugqDiaOH85hcYa8nUq1PfkZh/islh7JnnSbApRbY1zx4wzW3tH/sw/JJL34fuRsG0qNeWl3B7B6tq4uHlRY0Mt5wbNWHqXEg8OtH/DJ1R60RDuMS7rHRCs2q6ap2VPW3yHumZ2vA5RcYFB4OjTszFDDs9oMgbLCOA6GrcnxGd4fCoLFEdnN2puqicfdd2nLrqNPHwDKP/0MXU9Dcnk5cUXuD8hDIk+gu9AXtW42Uto0oKbeao9kqbRJqbWQwciODQuWV2nYMNaUJ4+vH4TliwYjSndM266h1dKDo1J5n58LZ6xZudgS+Onx6pzauPnV40WWHvo7m/+lOLHT1cC9VDnFHpBEL4ciMBRwPBBHASExVBEYjrnSWBdFkwFh5EZrsDBAz5nLruPIhMzeEYNxA3Av3iPzcHZtZfBwno0YfEpLJD2rP+o26wZHazOjEXVPP2CWeDA+GHBPcyewjo6Gz94jUMtxgxF4ACsvYIk5sCIGH5AKB6KCcGDRyvsU/XBOio6l/JzWFD4h0TwGjxoQwii43s28/osmG6OBQQ7OtopTBn9KUqAQUzi3O0dnMhKCUi/4IjO9qhT59pzjaChgPYoOHuCp12HKYOeOH4GCzRcB4TZTh/Zq5XsKgsBGxKTyO2Csvr5Yfq4jqnCAteuXIk/nAvaDPWISZnAoUbM5Nr26TudazHhX6yZ5OTizv0qJnUixWdOIy+/EHUNTtOat//BwhUMV+CUFxXytHXDGkbJqn9n8AwxrE2ki7iRcCXWwTGVKyVw9DZHSLjnGlmCIIx9zHolY1NBmMDN05fDQtfiRj1c9HpDWFSWFo3aGicAq9vaOjhQozK0A7WJXgdMv8a04ZGir9zbcx0YY3KO7KH1K17V3nWBv0EuTUtj46B1MaWsqejHhtAcbEVgeMaw8CAEYXVFiTKmo7u6rn594JEbrC6mgj6CRQKv1VTxK4W+IjREInKpRrPNBEG48ojAEcYkyO1IGDeVbGz6X9ul+MK5UXk0gCD0xaSFt1DGjIV9Pj5FEISxjwgcQRCEHiBBfsn9T5O9ozOteuMvI56RKAjC1UcEjiAIQh8gSR6J2aMZ8hUE4eoh8zoFQRD6ADk3Im4E4cuLCBxBEARBEMwOETiCIAiCIJgdInAEQRAEQTA7ROAIgiAIgmB2iMARBEEQBMHsEIEjCIIgCILZIQJHEARBEASzQwSOIAiCIAhmhwgcQRAEQRDMDhE4giAIgiCYHVbObt7Paa/NDjsHJ3L39qPmxgZ+poynXyB1tLdTe1urVsKAq4cPuXh6k6OLW+dmYWFBrc1NWgkBOLm6k5uXr2q/tl5tOFaxsbMjT99Asraxo+amBm3vl5eh9ukrjaOTHXn7u1FjfTNZWlqQf7CHqkcHtba2ayUEQRB6A9vqG+hBVtZW6p7cquyvE7l5OlNDXbNWYvQw64dtjpu1mNKmL6BPXvszv1/28LfpyPZ1dGDLF/xe55bHv0f+oZHaOwM5R/bQ+hWvau/GFjBy05fexa+3f/YfZezq+bXO9KV3k4uHF+347D2qqSzV9o6c+Xc8QjFpk2jvuo96teFYJTZtIs26+QEqu3SBPnzpN7wvY+ZCCotN5ddtSqyVXjxH+aePU9H5s/z8obHMUPv0lWbeTek0c3EKvfSbz/n9499bQlu/yKINqw7ze2Pi00Jo6rxEsrO3oY6ODsrJKqQtq7OoXQminuDml5geSpPmxJObhyPV1TbRoZ1n6MCOM+radL9Voey4adGUMTWarNXNsq2tvd+yYPn9Uygw1Et7151dG7Lp8J5c7Z3phEf70YxFSeTl66Z+jy106uiFfs8xJimQps5NVAMp+0HbY7hYWVlS6oQIKrlURYXny7W9XUCgoj3cvZy1PV20KZG64ZNDlHuqiGYvTaWEtFDtk/45cSSfNn92VHvXxWD1AB6qDvNvziBvP7dRbY/IOH+atyxDDW6stD1dVJXX0cdv7aIGJdB1XN0daeaiZIqIDeD3RYUVtP6jQ1Spyo4EU/r0UK/LcEifFElT1O+wLy7ml3N7GGN8XUD+mRLa/MVRqlf174kpfRqC5snvL6ULuSX09oub6d4nZlNwpC/949efKXvV3ZaNFLP24ASGxyjhEkWnDu/m93EZk6k4P5cunT/D73Uu5p5WZXZR9r5tVF1ewn9XWXqJcrMPaSWuLmFxqRSdOl4p2hpqbuh9we0dnShz9hJycvNgIdbT0zRuzlLyCQyhM8cOUENttbZ35EQmZZCXfzAV5p7s1YamYO/kTClTZivV7kvlRRe0vVcGL/8gCo9P47Y8eWAH70ueOIvC4lPJxd1L1cGHAsJiKD5zKiWq/Y111apOhVxuJLh5+1HypNlka+eg+lSxtnfkDLVPX2lgPMJi/NRNOoffj5seQ+fVDTDvdNfNFzf2u746i5beOYHcPZ3Iydme/4XgSVFG78SRAmpqaNFKG8rf+dhMWnzHeC5nZ2fLN9nUiREUGulD2Yfyqb3NcMOEWHr02RtoxsJkcnF1IGcXB/LyceHjRsb707H95zrL6ixYnqmMlx95eDv32i4q42tcd1NYeHMm3aHq7RvgTra2NuTq6UjxqSGUmBFGp9SNXj9HvT1uvHsSe78cHe1U/zOUTZ0Y2as9hgOE1s0PTKVbvzKNkseFs1G6dKFS+7QLB3Ut5t2UQcHhXr3aAoY+9+Ql/rupcxPUeYT2KtNzq69upKwD57SjD70euB6Pf38Jhau+5KCMu7syfv31D1PBsafNT1QG2rVXfa1trOngrrPsQdDLPv5fSyg2OUgNIG3IycmeQpTRnTgzjirLapXY6V33oWBKnwZDvS7DISkzjCbMjO11XGzQWXu3ntJKEmVOi6FHv3MDhUb58HVxdXegqIQANaCIoQIlTKrKDXZpOH3azsGWxk+PZTGDPpMyPpxFz/7tOZ3XY7Qwe4HjHRhGJw/uIEtLK4pKGUe5xw/2MmAIXUAIYHPz8GbjV1VadM0EzoS5Sylx/Awqu3ieyot7G1tbO3uKUwYZnDq0q5fASRg3XXVKZzaCY1HguPv40+zl9yuB4d0pOq4UfQkcnAdCbZtWvk5r3nmRDm5ZzSGf4Mg4Ck9IVzfryhELr7CYJJpyw22q31mOaj8aap++0kDgBIV7076tp8kSo3Q1Oszal0eXCiq0EkQzbkhWI+JUFj7/9z+f0NoPD9CWL7LISxmcqPgAdbO3oezD+VppdVOdEkVzb0yj/NyybuV9A90pIT1MXcMmyj9bwmWX3zeZPQPwuvxNld346WHavfmkMpT+bKwaG1rV93YJS9xAp6gRJrwrbz6/gbatOUa7N53s3HKOXxxWeA2G/KZ7JlGtMvDP//JT+uw/e9mTYWNrrQxKuBI8lnyTB/r5lVyqpr/89CNa/cF+Luvt60LRiYHshTqplTUVLx9X+vpPbqLZS1JV+7qRpTI8AAa0L4MIoz9FiRfU5dU/runWFnu3nKbzqp1heGGA1n10sHNDGBJ1Xf3+fnrxN5937tfFjSn1cFKj/fu/Nk8JVEf68F876K3nN9Im1R4QqvgOF/W5sWgyFQjMuJRg2ro6Sx1/Z7dzPLjzLAsXYGNrpYz0bPL0djGqxxEWZcnK+AaGedFR1bdbW0x/srwpfRoM9boMhylz4slHiZDPV+yjz9/b1+3Yh3flqt+MwZsFL9JtSpg6u9rTh2/upLf+tpH7qZW1pRKAweSprs/BnYb7/3D6tC5wii9W8WcQOPi9bF97TCsxeph9knFrSzO1NDUa3sAb2IfrerggJ8U7UI1ufAKUkh24KS2trFkcoDz+7lqCnKOh1AP5K94BIUM6P6AfF/+ONkOtM+qJ+qLeqP9Q6Ghvo6M719Pad1+kjsvtlDlnaZ/fo7eHKcceKvqx0UfQVwZiOH06OCqew1su7p7anpHT3NRGjY2GEZcF6tCjHhiJIz9o98bsTrc2XNa4kTUpARIc4c3GRQciCYfYsrrLDY7yuzeepJaWVhY0GDHiBowwQmN9C21bfazTDY6/2b3phPrOyxQR58f7dJTO5A1CBGIG4RLjzThUYQpJ48LUqNtOiatTVFZkGEwg7LB3y0mqrWpQN/lgFlcgJimIjcQ+NVKuUZ8BlN2xIZvbI0gZ0uFi72jD/25fl02/euYdFpsDgXpYqP9KCit7tQXCFcMdSZtSj7AoXzaWMNr7tho8gWiP1SsPcggpIk79jpXB7wuEvibNjucNr/sC+yFKCs+V9TrHkouV/F0gLMqP/EM8utUDnD5eSOeUSEYd4pKDtL3dGaweQ+3TOlfqugDk7LWo9jiT3bv/l5fWaKWIPToIkUG06EIGbYXfVlV5rRKCzuylASPp08bhKPyNfj1GE7P24FSUXKLzJ4+qG02Fauw6On86S3Wcc3zT7Q99xD+QBydAjaKXPfIMTZy3jJImzqTkybMpfcZCsra1o4t5p1WJrgsFgztxwXJafN9TlDJlLiVNmEmpU+dTZGIGFV/IY88CQK7IrU9+nyYtuFkzclYUmZRJE+bexFuq+tuCsyfYI2OqBwfC4O5v/pSCohIofdoCrg/qnTp1HvmHxVChOi6Mpg7qPHXRbXTDPU+oc5vD54fwDZJJnVw9enlwYtMn0Y1f+Q6Nm71YO7+5HJ5pa21W7X1eK2XIdZpzy4NcxtrGlpzdPDrPD5u7l2+vNg+JSeK2Hj93ab9tp4PQ3rJHv0OZMxfx+aVPX6BuuC5s1Btqu3twIILQN4w9ZDWVZZyL5RMcTjVlJVR60eBdQEht4d1fpdnLH1TnNYuPnTHzhl5tB1F0+9M/ohk33s3XDtcQ19L4HC+rvmfcdhA2c255iObd/jC3WZJqZ9S7r74EhtOnIZwW3/c19kx6+AbRaS28NRKK1Q04+3ABj4Jx44aXoiCvrNvoEqP3AmVcju47x4ZGx9nVgUNarc1tfAOF5wSiZeaiFNUe1rRj3XEWIjoePs6UpEbjaM+s/efUTb5FCdHLdPbkJTp97AILGp2AYA8OqdSovz+4o6udvXxdafKcBM6nMN4/UpCj4qYEzOFdZ7p5KBBCS5scyaPgY/vz+HyOHzxP6z8+pEbs3fPi3DydKHNqDNWr0bxxmMAUcPyd67PpVNYFNoIYFcNL0J8HBx40eCfOq7qY4jWC5w4jcxjJvkJ6ptQD4hChDITxkMOjg5BGlPoOP/V3uSeLqFQTjsbMWpLCXrwEJaKR6N6zTcGkWXEcNjm062yfx9BJygzlHJmCMyXcv3QgWGDAQyJ9lEjqO4Q5UD1M69MG4TLc6zIUZi1O4X4Jr6sutvoCoTD8PnEdIFz035e9o8HzAhBOalKDm+H06Rb1u8cgA+E2/PbP55ZS9sH8Tg/SaDL4sPxLDJJvkUuDxFGM0iuVcWhtHlkj+oVEKGP3BNk7ONGBTZ/Rir//krZ+8jbnymRMv4FFjDHj5yyljBk3UE1FGa199yX66OXfUZ4y4h6+gbTgrsc6PQV5J4/Qhy/9lo93LvuwMhSttHP1+/we28ev/JEqii9y2eGCUbwaHNC6//yTNn/0L9UeRRQSnUBzb/sKixqdTDXST5kyj5rq62jX6g/o0zf+SmVKqPgEhWkluohJnUAzl92vDHcbtwPqun/jpxw+mbTwVopISNdKEm1Y8Sp/jnaAB6JMCQj9/LDtWrNSK2kAx77hnifVCMGGtn36Dq188dd0cv8O1Xb+3doO4LrMVuLJzt6RTuzbTqte/RMd3bmB64y/HypF+WeUYbYkLyUKAITYwrseV+2UTOdOHubrh/ZAQjLa07jtIKJWv/V3PhdcO1xDXEvjczy2dyuXBTg2hEdM2gTKz8nmY6Nt6muquS/hOvRkOH26TdWjXZXFCKmhtkrbOzLg8dBHwRiRwt3cc3SJmyDc1T1vptGJQer3Y8OhK91zYm1rra6TlSrbTLU1XeWnL0iih7+1kG+6jk5KFLvYK7HUzkYUG14bExkfyCPK08poGgMRAoOFsNg3n1tO//P3B+nHf76Hw0sIlQwXHA83aZy/DozlN9R3ICfHxsaaE4/7A6P3afMS2fNx9tQlbe+VB+eMdvJShvbZ/72d2+P7v7uT5i5N69MTcSVoV+2G/mNr5MXTaVHGEwMq9JO+gJHsUFq6rbVD9Zcu4WCMk5uDGh5cpolK6OBa4xy/9t83sWfRGFt1DRFKNr6G6G9P/mCpMugx/L4/T9JA9TClT+tcqesCsQVxc7njMvf5n/zfffTc3+6nR797Qy8vS8mlKiovqeFwVuqErsk3yZnhnEeEfDU9B6cvBuvTuOa4d+i/fXhyjD1Io8nV6clmhG9QOP8YsnZtpH0bV7GRPr53C+1eu1J19DYKjU3WShoIjk5kDwsExdljB+jSuTPKiP1TjRaOkbObJwVFGBQxjFTZpQI+XmtrM3eCxtpqfo8NOSEwaIMBo2lt3XeIA8f48J+/5XqcUELh8zf/RtUVpUoEhFNAeDSXgbcCwqK1rZk2rnydDm9fSwU5x+nzt56n/NO9Y6R+IVHswdiz7iNuB9QV7XJkx3qysbXj89fBjC58ju+EgcYMJv38sNXXdN1gcB6p0+ZzyGjDipfp2O7NVFyQR5s/fpNOHdxNrp6+FJU8TitNlJBp8Fod27OZy1zIPcmCCTO+2juGnltRX13FwsTO3nDTwWw0JHND+Gx4/zW+fmiPde+9zOfh4RdE7j6GcAjOCeID54Jrh2uIa2l8jsYz3tDO/mFRdP7EUVr97xf42Lg2CJU1qXLRKeN5xtxIgTfynb/8RG0/pU0r/6XtvTb4BLjRtAWJamTXrEZ2J7W9vcHN+J7HZ9GN6maMBM/qinqyUAbPyJvfC8zkSJ0UQWXFNXRo91ltrwEYShhMJE2iDsDJ1YFH2A9+Yz5/30jBjX3xHRPo/q/NpTo1Wi8twk37svo9dq80jM09T8ymp354I/3oj3dT+pQozvHY+EnvGWhXCt2ox6YghGYIN7h7udCiO8bTnY/O4HO50pSX1LJA9Qv26BaqxLXw8HHR3vUNxO2vvvsu/eZ7K+jw7r5nv0F82tvbsqCxsbUhC/UVYdG+9MDX5nGybH/EpYbQN3+6nPwCPSgn2zCo7E9cDKUeOkPp01fquuhiC56VyPgAsrayUvdYK/agPfb/FnHemg6uyfuvbef63fHoTPreb+6g//rNnXTTvZPoYkEFrXp3r1ayi7HQp/tCBI6JZO3eRK/96hk24sZUKCMCwwijbgxGzDYIKWVM4XAEgCH8/M3n6Z8/+wadPtK7s4wEOwdHslbf1xdtra3dRvu1VeXKWGeTrb2DEirhvM9LGWxHN3eqLC6kwlyESAygzp15H0Zs/+xdeuPXz3bO6tGpVWLGWCiYSlBkPHl4B/SqByg4m81izzc4gt9DDPkEhXKi8NmsA7xPB4ICYaHhAg/JO3/6MX38yh9U+3XNBoAYg4cLYtIUD5ExUSkT1Iiqg84eP8DtqwOhW11WzB4qd29fbe/IwHXHMY2/52qDG/ztD88gVzWyXrvyYJ9hBYAY/9PqRpk2OYpd+//++0Zq6eGp6YmHtwvd8sA0fv3Rmzt5VGhM3uli2qaOteKVbfTjJ/5FP3n6X/T7H37AeTPhMb4cvtJBGOar/28x36x7bg9/ZyEn0vbEwdGOHn1mIc1eksKJ08//YhUnkPYFRugQWQHBnmqQ46CuCanfSu/rMpx6DJWTRws40fqVP66lnzxpaI9X/vAFhxSSx0dQYmaoVvLKkZNdyN6CwFBvWnLnRBYR8GDc/dVZLEQGA9e453XWgRDYuvoYbVfX/FfPvMvn95Mn36SNnx5hQz/nxrTenjv1N5hW/tA35rFn5h+/+YxyTwzuVRuoHjpD7dNX6rrU1zSqtjjG08x/9o1/83F/+vSbPBDA7MYFt4zrJZ5wr7CwuMyeMBd3Q1vBU9Xe1rveQ+3TVxsROMMA4ZDbn/ohPfGzF+ipX7zI2x1P/6jP0fbOL95XBiufEifMpEd++Ge6/9n/5bAGpvqOBRpqKrljW2J4o3BycSMrSyslUMqHbAyRs3TvM7+gJ3/e1R7z7niUhcdwgTDC6MY/NLrbcbEtvPtxPjameXNZTdTB61E/0hCMaoueP3R4tebd/gg99pP/61aPnmsnmQrEMM4DbWV8XGzwqFkp8YRp7OYAxM0jz9ygDJefMjJHOWGxL+ACf+zZReSiRq//fmETrXpnD7V3dM9D6gnEzVfV32B0+vGbuzi+3xPk3nzx3j7at61LLEPcYAYQbsSYQquDtTzgVcDNuueGvBBb++4eUjs7a3rwW/N5BtenanT7779v6hWuMwa5GH997uNOI5O17xxlqBEvplUbY2o9TAGJpZ+8vZtOKYOqg3bbvjabvSnJGb3D0aMNPAUQo0jGRtjm168+wmET5L0gwbWtvYNqqvoOPw0GvKdH9+Xy2i7Gya9rPjjA05wxYyoqPpD368xYkEgLb8ngfLLnf7mKQzGjgSl9+kpdF4SR4W1arc5f75vYh/5aVlxLgSGqX6kNICn+vqfmcP97+ferWWhhUPDB69s5nHXf03P592zMUPv01UYEjonA8Cy+/2lydvekg1s+78yt0PNKegIvyQcv/C999M/fUc7RPbwvJnUS3fzVZ2nB3V/t9Op8WYlLn0zz73yMkHOzbdW7ne2h56CMFISlkOvU15a9ryufZbSABwsemepyg3cB12fRPU9SdMo4KsjJ4jwZ/RwRchoprS0t7BXs6/wObl1NxUZJ2l9WIBhvfXAqu8GP7D7DoqI/rG0sOSH077/8tNcMnJamtl7CATfaux+fRZ6+rjz9Vl+XZ6gg7wI5NAhf6WANnV98623DqL/H9uv/9163qfAAHoHGumZ69U9rePQNQ6ozmJHG+axZuZ+qKxq4fdy9ugZJptZjNKgsrVGj9ParlocDL97vf/g+rXxjJyerwvj/6ccfch2aG1qpqmJki+z1BNemshTTw3uHDm3tbVkAYZp4z7yxak0kDQdT+3RfXKnrAs8TPI3GobK0CeGcc4TF+owHC5imjlllEDlIhu6Pgfr01UYEjonEZ04jWwcn2rvu484cHGx6Xkl/FOWfpY0fvE5v/f4H9PaffsRhCCTgRieP10oMHYQ1kNlmbWWtfjzdlTTeY39TYwM11RvWeRgIR1cP/tEj1wXU11ZzzgpyT4wTj/sjYfwM/lusKaPn4GDTc1CGS3NTEyfEXVbH3rfxU9q74ZNeG2aQcVl1rm3NTZz47eQy8DTygYCnBjOxcLzCPEPmf2hMMicq5+ccpzXvvMR5Mvo5IodoJCB3CTeVkoLcPs8PIgdhpS8zEDe3fWU6u+axZs17r2zrs1/oN1pMLcVaJPqUa4AkVBsbK9WnW1SZrhArxM39ajSJcMbmz4/0K5yQa3D7w9Ppnifn9ApLwLWOabnDpaLEYHjWrDzQbYVZjLbxvZgpVlttMI5YoRYhJ4SejEGoAiILa4Egb+RKg+RW5AndokbXPb2V6JC99l1hYBB3bczmNsSaNZ6+zmpzoZKiKs6nGg7Iu3ni+0soc6oht9AYTJc2BjMBMcsPM4IQwjLun5g5hJV5BwtB9YWpffpKXpdJs+Poq/+1mGISu3utcMyex9XzgPpqeyzoaJz8PVb6dH+IwDERK6veGf8gIj5dXUwH7Z0BTM99+Ad/oLu/+RwbTx1M8S08e5K9HvZOfatbrIVi79R3oh2mR1eUXFTixJ3ilOAyJiwujRyVkS9XAqquuvu0TIgfY48RQjwhMYnseSouMEyPxLTphuoqTp4NijQkQAOIHeTq9KTnzQKgLKZ3D5abgunu/SXRFl/IVfWvIC//UJ5CbwzOAdOp9XNBbkxpYT6HqrDwnTE4vkU/18wYtDcecYGE4fOnjrKQAf1db3jy3Ly8tXf9Y+/Uf57EhTPZ/L0IXxpfF4D2C46M196NnCuxDs5QWHBzJo2fEcszpj54bTu7xfsDMy5slWiJT+k+ywWzrlzc7OlSftd6NbgpwysUlxpMR3af5ZF3f4IaAgRJkBiZpow35G3pYB0SzPZAaGA4nDlxSdVFGdSUYG2PAazMCyNdUVrL4RZgr84tOjGAohO6Gxkff1eeSQNDZzyV+EqB6bhYfyZjWjTXRwdtmqrax9LKggry+s6PutJArEIQQ3YipNIf8GQMtP4MBEtQqDcvNmkcTkGeSFiMr2qDls5rnpdTQnU1jbxwpb5mEcDfYUo8BMo5VaYvBquHKX16JNcFXhUsuNffujMYe0cpETJtfhIfTwff4xPopsRYgxJ6Bm8Z+iDybMJVeeOyaA+fQPduXsmx0qf7w6zXwRkqSACOSspUBj2OfIPDydM/WF3gNjYG2OfhF8BTtDs61I3S1Y1Co5PJPyySBYJ/SCRlKMMRlz5RdUArFhX6eiuN9XX8MEQcA56ApoZ6NupYWwZGraW5mQ5tXd1t9hCAoQ6NSyZvVQ8ICORhxCgj39rS1Fm2So3sIxIzKEQZLu+AYHWsJsqcsYhSpyFBroF2frGC6pSQAnh4KJb0R30Dw2LYS+MTGEqzlt9PHj7+lHfiME+phtsWYgFGNyw2RYmlFLJzdGLPyMxl91KQ+i50eON1cLz9QyggLJqTgpG/ExQVRxPnL6fQWPyQLFW7FfZa2waCKjwhTRmAIPWD9lc/mDaKUueCVXr146IemH0Gj0p4fCo5OrupkV49Hxf1jlXn06baD54xUKvEUERiOq9G7BMQSm0dbZQ2bb7aFpC1ElrG1wXr4OAaI1EZIjRhwgyacdPdfO0v5uXQhvdf5esP4M2Clw3XgvuGTwA/j2vivJuUYXThMFxfK0bjekBsoX1d3ZUQUje/2NSJShT5dK6vU158wfDoBdV+4eo80T/wGI5xs5fwekjI08IqxcZrFA2HK7EOzlDATJXFt4/nGzjW9MDCbrgRGm9w0es5EuXFtZSoRt7xaaGcqIh1RSbNiufEz2ZlsJCbUK1uxGDhLeP4uTplapR//mwJu8yNjxsR689r4eijY3wH1l2JSw7mkXNraxvNuTGdJs+JpwZl7L5Ysbfz2KaAUS5mpUBoIYcB+STxqaG07J7JPBLGyq5F2vovGM0nZoap+gV1nh9Ws11+72Reoh9eqLNDSGodCgOtP4N1TZAsinVY4pQww2gbHidMH05Q+zBF+LP39vcZOhlsHZyeDLYeD8Azkm55aBrNUwZ6xqJU9ppgeQGssNsfg62Dg2nM/kHuPBuJ+4K6LkFh3koUT+Pwy7ED52nPFoOXFuu9ODjZ8/pJaA9M63bzcmKhhVl3mA20c0PfYmuwepjSp4d7XVzUcR/5zg2UptoReWBH9uSy98QYvZ9CWAWGeHB76P0U547zw5pSetnYlCCKUCIdjz2BQMFCiLeqa4Q1gfJOFdMGbXbU1ezTw0EEjmLmsvt4sbrAiFjDInvKMGMROrzH5ublR2ez9rPBhafA0tpaM0xR/DlEC6Ynu3n5q5unLXsAEOaAYLhw9gQ5uxqOFaMMXML46Wy44IXZ/NGb2mJu3cGy+86u7iwcMO0cQsYvOFKJmiIqLjBMRWxUfw+hERAarY4dx7kw3oEhVFVSROtXvKIMf9eURV3gIHEY3vj06Qt5CjK8R/mns3g6uG7QQckFw8JxwdEJLM4M07EtuCzax1jgXMrPUT8wCL0ICgiP5ec6YSR9XLWHtxIaEESnD+9hcaiD1xA+OL5faCTFpExg8QQvV1724U6DjmntEJbwloREJ/LjK5DQjLrsXbtSE2UG0B5Y8A7HQfvimFjM74y6bhB2WBTPWODoqwbjunh4+6kfZh0d2b6Wtq56h9pbu24g+Dssroc29guO4PJeSrSinhBqLkqwlF8s6BQtOvgMoic4KkHVP4brg3+t7ezo9CGDwEAbn1N9BWE19Cf0D4RAvfxC6NK507Tm7X9wPxkptkowxypRhqRmTHeHoL0azFmSyqsVY5SHWDxusD03jBp1QwlDk5ejhLu6ScPYYFSM59/U1TbSile388JgOpiOjRVXnVwclNHtfVyIKaxgqxtVGLyiC1XsokdCMY4douoG44IpscbHNgUkKJ/OUkJVjZxh5PDsIqyDgzVeIG72bevKCdLrEKWMBp55hDqgLIwRBNaOdf17LExlMGGB/J2mhmZeUA8CY4KqN8pjtdx3/7mlWzjFmCshcPRnJFlaWyqBUELvvri5cwXd/kB7xyaHcPtjJpAuIo1B/gjWP4JYmDAjltImRqjBmi0v/IfkZuNZPggvIqSIB4siOXbc1Giepo2p33jMQ38zggarhyl9GgznuuBxCBlTo9R92JGnnyMPzXjxS9DZT0O9eBo8FkFE34M9QN4YHiqqg7IYkASEeKnfUiCvBZQ+KYoX6IR4wu8Fs8zA1ezTw8GsnyZ+JYGXA6NzGCl4UwabcQRvhrsypFY2Niw0ej4BvC8QtsADKSE+BvoOhGGQMwMj39MbBLCSMZ46XVlazE/UxvRjB2fXQeuhnyOmGA/2VHK9ri1NTYOWNQaPYLB1cBi0LnqdWxobBz0+jon6VJYWqeszsjwZY7iu9vZUXVHCbTIUOq+7EsUD/Z3e1hCEphx/qKA9ELqsKR84V2ysgJASBAwWSBtO/sNAIAzh4mo/6seGCx8rJjc3tg66cJl+fgh/XKlFzoYKppsjTAexqYdLvgzo4aTBriFCRxAJoORi1YBhUvz+fALc1d9YDFpWZ6j1MLVPm3JdcI549ld5cfWgddb7aZsSMqWXqvoN7QK9LMoM1h5jqU/riMC5DugpcARBEATB3OmdFSUIgiAIgvAlRwTOdQCmlWPaeGvztctmFwRBEISriYSoBEEQBEEwO8SDIwiCIAiC2SECRxAEQRAEs0MEjiAIgiAIZocIHEEQBEEQzA4ROIIgCIIgmB0icARBEARBMDtE4AiCIAiCYHaIwBEEQRAEwewQgSMIgiAIgtkhAkcQBEEQBLPjmgscPOn6rm/+lGYuu5ds7Oy0vYIgCIIgCMPnmguc6vJiyss+RLHpU2jxfV8jaxtb7RNBEARBEIThcc0FTmtzM+1d/wmdObKX/EIiKDIxXftEEARBEARheIyZHJySwnNkYWVFfqHR2h5BEARBEIThMWYETltrM11ubyc7e3ttjyAIgiAIwvAYMwJHEARBEARhtBh7AsdCNJcgCIIgCCNjzKiJ0ksF1NzUSN7+wWTv5KztFQRBEARBMB0rZzfv57TX15Sm+jqytbOn8IQ0ikwaR64e3lRTVU7NDfVaCUEQBEEQhKExpuJBWXs2Uf6pY+Tm6U1JE2eSX1CY9okgCIIgCMLQsfAPib+svb6mYIG/JQ98nXyDI+jA5lV0ZMdG6mhv0z4VBEEQBEEYOmPGg4NF/ryDQqm8KJ8Ob1sv4kYQBEEQhGEzZgSOk4sbWVlaUW1lOV2+3KHtFQRBEARBMJ0v3ZxsJ1d3uuc7P6dHfvRHflCnIAiCIAhCT750AkcQBEEQBGEwxozAcfPyIytrG6osLdb29I2Dsys5ODpRU2MDNdXXansFQRAEQRC6GBMCBwv7hcenUkNdDZ07eUTb2zc+ASFkbWtH5ZcKqK66UtsrCIIgCILQxTUXOAHhMXTn0/9Nrl6+dGjrF1RedEH7pG98QyKpobaG9m/6TNsjCIIgCILQnWu+Dg68N5EJGXT+1FGqr63W9g4M1sxpa23R3gmCIAiCIHRnzCz0JwiCIAiCMFrILCpBEARBEMwOETiCIAiCIJgdInAEQRAEQTA7ROAIgiAIgmB2iMARBEEQBMHsEIEjCIIgCILZIQJHEARBEASzQwSOIAiCIAhmhwgcQRAEQRDMDhE4giAIgiCYHWNO4ODZVLNufoDu+fbPyMs/WNsrCIIgCIIwdMaUwLGxs6NF9zxJUUmZdObofqqvrdI+EQRBEARBGDpjSuDEZUwhv5AoOrF/G+3buIqa6uu0TwRBEARBEIbOmBI4/iGR1NHRRuVFF7Q9giAIgiAIpjOmBI6zm5f2ShAEQRAEYfiMKYFjYTmmqiMIgiAIwpeUMako2tvbtVeCIAiCIAimM2YEjruPPzm5ulNjfS2VXDin7RUEQRAEQTCday5w3Lz9aOriO2jZV75NDk7OlLV7E9VWlWufCoIgCIIgmM41Fzh+QWGUNHEmOTi7Ud6JI5S9b6v2iSAIgiAIwvCwcnbzfk57fU0oLy6krN0bydbegeLSp5CXbyCdPXZQfXLZUEAQBEEQBMFExkQOTmtzM+1es5Iqii+Qf3gM+QSGap8IgiAIgiCYzphJMm5rbaG2tjaytrEhd29fba8gCIIgCILpjBmBIwiCIAiCMFqMKYHT1FCrvRIEQRAEQRg+Y0rgVJUWkaWVNdk7uWh7BEEQBEEQTGdMCRxME29urKeo5EyysbPT9gqCIAiCIJjGNZ8mbkxddSVZWlpSdMoEisuYSpfOn6GG2mrtU0EQBEEQhKFh4R8SP+YWnHFx96KQ6ETKPXGImurrtL2CIAiCIAhDY0wKHEEQBEEQhJEg08QFQRAEQTA7ROAIgiAIgmB2iMARBEEQBMHsEIEjCIIgCILZIQJHEARBEASzQwSOIAiCIAhmhwgcQRAEQRDMDhE4giAIgiCYHSJwBEEQBEEwO0TgCIIgCIJgdpj1oxrsHJzI2c2DKkuL+L2Hjz8/0BNPLP+yg3Nz8fDS3hlob22lqrJiuny5Q9vTnbHSHo5OduTm6UQlF6v4vW+gO1VX1FNDfTO/Hw44poe3s/bOQGtrB5VeqlLtIU8jMTcsLCzIJ8CdbGy6j9Eqy+pG1I/GGvp5NjW2UE1lPbl6OJG9g630a0EYAmPqaeKjTfq0+TTr5vspP+c4OTi70PJHvkOX29v5KeVjHb+QCJpzy4NkY2dPpYXntb1d4NwW3v04JU2Y2bkFxyRS7vGD1NrcpJXqzlhpj5mLUui2h6fTqawL5OzqQE98fyl1tHdQ3mmD8OqPKXMTafEd46mmooEqymq1vQZwzPu/No8mz0no3GKTgylr/zlqbmrVSl1/uLo70vQFSTTvpjQKjvBRYlaJYCUmxzp29jZ021emU2J6GOUcv6D6R3djDkP/2LOL1Hmld7vmOL/B+tGXCf08/dUgIOvAObrtoWk0c3Hqdd+vBWEoSIhqjBKekEYhMUkUkZih7enOsb1bacXff8nbqtf+pEZ3Zdon5kvy+DCKTQqilAkR2p4udm08QX/+yYe8vfTbz6mitLsAutp4+7vR/OUZykCHanuuPrOXptL3fnsnTVuYxIIhZXwEPfnDpXT7wzPYMzCWCQz1VNc7nOLTgsnT20Xb20VtVQO9/pd1ndd86+os7RNBEAQDZi9w2traqL3NMNJpU//WVlfw67HOwS1f0Irnf0Hr/vNPbU93EFYqu5jPG0JOHR19h6V6Mlbao621nTfQqv6tLK/j1wPx7+c30p9+/CF9/t5ebU8XCEsUni/nrfhiNbX3GPFfbUIjvGnujWmUPilS23N1GTcthuYsSaONnx6hn3/zbXr+l5/SL595h957eSsljQuluTelayXHJudySuhv/7OK/v6LT9X1NIQyjUF4puRiZec1b6gzn7BUXzQ2dnlrGlVfh8ATBGFgzF7gtLY0U0tTo+ENbN4gcWtXDx/yDgwlJ1d3bU/fIJ8F5fAvQHnvgBCysbPj9z3Bfnw+UBljWpubqexSwajnx5jaHpZW1pQ4fgZveD1aNDe1dd60LVCHIeQTQMRczC8fVdc8QgBBYV7kG+gxqFcDXpDAUC/e8Ho00Y8dEOJJVlYD/yzxOcqh3qh/T7Bv3rIM2rftFG1cdZhDN998bjk98f0lVF5SQ7vWn6C0iRHk5GKv/UUXXj6ufFzkNA2EXgeUB3r9+6oPMK7zYMcGuoApL63R9lwbTOkfQy2Lz1BGL9ezLfsC+Tc6aBvJvxGEwTH7JGNHZ1dOvLWwtCQ3Lx+qq65g8dAThINmLb+fXNw9+T1uIBVFhbRx5essNEBs2kSadfMDVF9brYyDG1nb2FJzcyOVFeZTQFiMEgCW/Nm6/7xEl84Z8lrsnZxp7q0PUUh0Mn8OkAR84ewp2vTBa1xe55bHv0f+od1H/DlH9tD6Fa9q7/oG4mrZo9/l15+88geqr+k94gWmtIdOxsyFNGnBrdweu1a/T0d3btA+GT4wcM5ujpwoaWlpQd5+qk4V9X0Kl6//eBmFRftq7wysfn8/bVCGuz9gaJ78/lJ+/Y9ff9bNOOgghHTvk7MpONy70xjV1zTS2o8O0s4NJ/i9DoTAnY/NpLiUEGWMDGXRHjnZF+k/L22hGm00rX+vj3//hqpn3SEMbn1oGqVNimRDB1pb2mnrmixa88GBboYM9bzhtnE084YUsrG14n34/FJ+Jf3nlS108Xw575uxMImmLUiiF3/zBSWPC6Mbbh3H+U7uns5UXlxN29Yepwe+Ppc+enMXZR/O578JjfKh+56aS54+hnAQjnvq6AXyC3KntrbL3I4A5+foZEsd6nMXVwcud/bkJQoK9SYHtb+9vYM2fnKY2xHgnG55cBqNmxatfi/91xkgn2bR7eO1dwZKi2r6vYbG6H87WN8YKoFKqNzxyAwWLIP1j6H2JfRlCJn62kby8HbhdoD3ydnFgdy9nPj9gR1n2MuG1wDHQ5JxXXUDC3z0MRtrq2su/AThy4BZJxkjFNPUgNAHRjwd1FRfRx3thrCIMTGpE2jeHY/yTWX32pV0YNNnZHHZgoKj4yk4Kp7ysg9z4q6XfxCFx6exF2Trqrc5LOQbGKaMtCVt+eQt9rZA6LS3tVP+6SwWQIvufYqCIhPo3MnDXOZM1gFydfeiwIhYdWMMVgJmn6qB4WZ2WR2vorhQiaMcdYOsJHffAKosuUi52Yf48/6wtbOnuMyp/PrUoV39JhkPtT2MgccpJDpJGa42OnN0r6rfRe2T4YOQVH2toY5oc7xub+s7xIY2LrpQSbmniqhJCSAfZUzOKGExUCKpnYMtjZ8ey6/3b8/pJZxgXB575gZ17dzp8J48ev+1bXQhr5zCY/woKTOM6lR9Cs8ZcpogJB761gKKTgyi7IPn6IPXt9PhvXl8jKj4AGWwvOjQrrNctqW5jXKOX6R9W09RWXENRcYF0InDBfT2PzbR7k0necPnOH+AYz/8nYWUmBFKJ5WYWPHKVvVvIYVE+lBCWii3TZ46b52FN2fS3JvSqEwZ/Q//tYt2rDtGDupcI9T3RCcG0LED5/lcEX7COWTty6Ob75+izvEsvf/qdv4etHOWKpcyPpzP8ZJqWxjNh745X52TK504lE8fv72b64/yEEUI/6AdAdrV0dmOtnx+lE4cKaDwWD/y8HKmHRuz1XmfpqiEAP6bI3ty+TwhDCfMiKHzZ0rofdV2ezad6KxzhPrbo6qOrS1tfGyELGurG/laF+SVkpcSvm2tHX1ew55ExvmrNggctG8MBVzbh9U1R//YtzVHtfWOzv6BdqurbaYLWv8wpS9NnBWnhIyzKpdL29ceozBVxsvXhY4dPE/rPzlEYVG+3L9PqnbVfx8Ar/U+g3ZobDDvcJwgjBZmH6IaDIiQ1Gnz1Yi0nTaseJmO7d5MxQV5tPnjN+nUwd3k6ulLUcnjtNIGSgpyKe/4ISpQIgai4dL5HDp77IASL/vVjahZjcoNrn9M43Zy86Ci/DO04f3X2KtTkHOc1r33MlVXlJKHXxC5+/hxWQBxsnfDJ7zlnz7GM5yuNWiPt/7wA3rnzz+mnKMQY1cXGLc1Kw/wlq+M5GgweW68EpeutHfLSXpHiY/8s6VKfJyg/7y8hdraO2jGDcmd4RskuLp5ONM5ZTTfeWmzMp7FdDrrAv37hU1KBNSSf7AH+Qa4cVkIEj0vBDkSeN/S3NqZJ8K5IkZTmDMmR1OEMnLZB/Pp9T+v42Mf3ZdLb/5tgyrXxPk7xuGc2JRgJaLbaMWrW7kcyr/5/EY6lVXAIiM63p/LI9Rx8Vw5G0wHR1tlMC/w38NToOezwJuin2PG5Cj2op08nE9v/N96Pr/1Hx9i71RTUwuXMaa6soH27zhDR5TQq61qoqqKBiW2sllIYZq2lbUVWdta8/f5BrizQH1XHQvH1etckFvC3iLUUQeiRr/WW9ccV2J89EKRpqD3D4gQCBbj/tGihAa8UbqnxpS+BJpVe6LsQSWK0VZNja2q7Y7Tsf3n6GJBBV8X3dMlCMLIuO4FTlBkvBqFBVBlcSEV5p7W9hooOJtNHe1t5Bvce9ZOXzQjt8Uo2bey5BK986cf08ev/EGNRLsMBUJI8J5YW1srYzC6uRxXAtS3v7DXlw14TeKSg9l46l4JnTPZl9Tou4zcPZ06DS8EwW+/9x6HSRA60kHIpKGuaUQGKW1ypOoul1msQAzpIM8IXho3Dyc2njr4TjsHaxo/PaYzBwh/99qf1tIPv/o6G00ICwgMhIrgHYBXqaykmoWPrZ01tWv9E94S3UsQmxKk+rmqx/68bvWoV+fXc3r2QKB99MRxUFfbSP/3Px/TH/97pTLmXbPa8B2VpbUcnrR3GFv9H8IlOj6Q+we8S8acyynmENih3aqdbSxN7kuD0WKUSCwIwsi57gUOvC0W6kbrHxpNT/78BXrqFy92blhnBh4eF/fuC+qZAnJw5t3+CD32k//rduyeuTbC1cHByV4ZehsOHcDzYAwMb11VAxsuiAMdjMDveWI2/fKlr9Dv3nisc+uZG2QqdqoeNkqQ3PPknG7HxYbwDYyot2+XwFn17l72AiFp+Gd/f5B++Me76a6vzqLw6C4voDE4T/Rtfm1vSBCvqagnZ3U+EGXIbwGoR0tLGxUXVvL70QQ5OEvunEg/f+HBbueXMTVaKzG2cHF3VH3Ejj1oem6VDgTczvXZvOH1cPqSIAhXj+te4OggLIXcm7627H1btVKmgdlSi+55kqJTxlFBThZ99PLvOteuwfRuYewDT8mD35jPScAnjxbQ33+5qnPtFYiNkQIPyw5lMBES6rlhind+Xtf6RvCC/PW5j3nq9KFdhiT2jCnR9PR/30j3f20u17VNCRXkgNk72nJ5R2WEEYK67aHpHEpzdLan8TNiqa6miYoKr+wSAfCG3PnoDJq1OJkunC+jf/5+dWfbHT/Qe/FKQRCE0eS6FzjNTU10uQNJt+20b+OnnTkwxhtyY4ZDaEwy+QSF8crBa94xzKzS167BejTC1adRjcyRFwMvhruno7bXAAyyh48Lj87LSwwhFcycConwYXGD3BjkkOj5NMbhmOHQrOqBVI78M8WduSfGG0ROWVHXLDudc6r8f/65hX71zLv0m//3H65LcmYYpU2M5BwfzLAJCvem7CMFVJhfxrOLrGys6OjePFp232RKGRdOq9/f1xlyQyjJ1taa/II8+P1ogRlDcakhdKmgkl794xrOwdHbDtdgLILcKawz46j6h7evIbdKB/3DeHq3qX1JEISry3UvcIov5PJUaS//UJ4Gbgw8MEkTZw1p3Zq+sLLqOzcjIDya3Ly8tXdjmyu1Ds61Agbn1LELZO9ow7ksxmAmkl+wB09ZP3/WkNBsbY0QT+88FISQvPwGDz04uTlor3pzOquQrKwtadKchM6cGh0Ig5jEQO0dVvb1ouf+dj89+7+3d0taxQKJmDmEJQgcXQz99OieXApU4iIpI4xe/PXn9L2HX6WXfvM5vf3iZvqvr7zCC/5BqOnknSpWf29BqeMj2DDrODnb8/7hgkPpITJjMPMIj424VmDqNxZhxL89QWjpzMmLZK+uR+rEcG2vAeTSPP2DJXT34zM5fGhqXxIE4epi1tPEhwKSfzGtOiwulcLjU8nR2Y2am+opNNawLk5sxmRqa26movyzndPEq0qLeOp2z/eOLm4Up8pXl5fw+/aOdopOHs/TwX2Dw8nTJ4Bi0ibRxHk3qZuiC8/AOnV4NzVoa+HEZUyhqKRMCoqMM5RXf9fe1sZr82Cfh18AT9PuUMf1DQpX4msm74dgQiI0EpatbWwoMCyG/NW+hroaam4Y2UKB6TPm07Qld1FoXAq1NDVwKO9aMdBUYHhZpsxNoOiEQFXOj0KifDjPxNbWSokRf95qqht5ynN5cS0lKAERnRTEXgaM2uNTQ2nZPZM5p+KLFft4WjPATJj0iZEsMIIjvMlPjd4zp8TQwlvHsQDA9N0DO3J4erMxTU1tvJieX6A7G3QLJRQyp0TzbKXCc4bQVtGFis7p0nikQ31ts+p/tjR/WQYtvn0CTyPO2p/HYSyElAKUwcT5x6u6oywSjqcuSKLJsxN4Cv2mT4/wDKeiwiouO2tJKrkogQWPBJ75lZQZznlDBbml/P06ZcXVfMwIrX1bVN0zp0fT4tvGcYir5zRx0Nd7TGHGVGjkFeF9Q20Tr8ODxy5gyryXj4t6H0433jWRPH1dCM8fyz6UT5iqDky5hshtQS4S2g3lgyN9eIo1conQ5tiHmWUX87uH4dAej3znBg45hsf4d05nN8a4f2DKOzxcCelhdPMDU3gJgrUrD3ZOEzelL6FtIE71/tLzPaagY02dvvrTUMGaWLc//SO+xxScPdF5bxGE65HrXuCA8qILLBwgFEKiE9lbAeGixp+0d+3KzsXtTBU4WHOmouQSBUbEqdFcBK994+UXyOvqYDVhFy8fKr9YQKVaPs7MZfdRbPokQzklbiwtLPnp33iPzc3Lj85iKroSZPGZU2jCvGW83z80St3w7XjDa+zDwzrLLp5XN+BCPvZwuRLr4AyXgQTOhBmxLDoi4wN4DRIkzmLDa+zD6Ftf96WpoUWNvAvVCN6b4lKCaeLMODaUMHRrPthPe7ec0o5KbEzx6AeseRMa6cvH8g/xoOP7z/FKzF6+rmxE9bVOdPAdMFLwwkA4pE+K4n9h9GDAANakOXE4n2dL4dwypkTRBFUXrK2Te+oS/euv67sZOqyhg7KoC8pOmhXP54cy77+2nXJPXtJKEq+/Y2tvQ5PU8abNVyJIiYHIeH+enZVzvHufwDo08DKERSlREenNxj9Utdf5s6XKYNqz4BmOwKmraaR8Jab046LeWOOnIK+Mw3IIoyF8o9fHlGvo7OpItz40nUUBPoO4AfgX77G5uDnS3q1d1xJYW1tRxtQo/qyosJKvRc+ZYnr/wPcmpIfQpNnx3D/wIM+P3trZue4RMKUvXQ2Bo6+JZWNj223wJAjXI2a9kvFwwAjIwdmVWhobqaay+0h3JOARELb29lRdUTLgysFjEf2xFdd6qjgWultwS+aorVYLMH3aw9tZGarWQVeHxfoydg42/LiDwRae00HIByvRWltbDvh3mG2ExeJQfrDj68e0sbHktVSM19YZKVj0DzklqANWMX7su4uptKia/vbzTzh8M1xwXBcllka7vsMBbe3l58arOmM6/UCY0j9MKXulwONjlj38bWpqbOBVzeuqR39mnCB8WRAPTg/gHcGop7lpdB9mh+MhZDTYysFjEbRJf6sjXy0Qklhw8zg2vgfVCFcPa4wUjLQxWh7K6rAog7L9rbrcH1hvZrC/42nFNY1DPr5+zJ7hleGA/J+ld03kVaMv5Vd01gGL1GFlYjyyIfvQyGY9QbCNVn1HCtoa7TcUwWZK/zCl7JUiLDaZIhIzeDX0E/u3a3sF4fpEPDjCmCVzWgz5+LlyAm1MUiA/6wczcP7xv58N6OEQTAPPoXroG/N5CjnyRbDQIEI8yJ1BSAvTu40X6hPGLnhWHsLsX7z1PIfeBeF6RgSOMGa594nZnQvCIZRwNvsi/eflrb0WYBNGDhJyF902juLTQvmhmZjCnnuyiD76106eqSV8ecDipMYrpwvC9YoIHEEQBEEQzI7rfh0cQRAEQRDMDxE4giAIgiCYHSJwBEEQBEEwO0TgCIIgCIJgdojAEQRBEATB7BCBIwiCIAiC2SECRxAEQRAEs0MEjiAIgiAIZocIHEEQBEEQzA4ROIIgCIIgmB1mLXDsHJzIyz+YLK2secNr7BOuDTZ2duQdEELegaGdm359hGuPq4cPb8D4t3O18fJx5Q04OtlRQIgnWVmN/FaFp6bjWPjXwsKCfAM91PnK/UAQzBUrZzfv57TXZkf6tPk06+b7KT/nODk4u9DyR75Dl9vb6dL5M1qJq0tkUiZNW3oXNTc2UHV5sbb3+iE6eRwtuu9pSpk8h5ImzOQtOmU8X5+G2mqtlHCtWPLgN1QfzaCTB3Z0++1c7Wvz6HdvoJTx4bR36ymauSiFbnt4Op3KukC11Y38uX+wB93x6ExKVWXyckp6PVk+KMyL7nxM9a/MMDqXU9z5edqECHrga/OpoqSG6uua6bFnF5F/oDtlHTjHnwuCYF5IiOoqEpM6gUKiEyg0Nlnbc32Rd/IIffjSb2nF33/JW9nFfO0T4UoRFpdK4+YsJTdvP23Pl5/iwiqytraipHFhlDE5StvbxZS5iRSfGkJNDa3y5HlBuI4xe4HT1tZG7W2GEVyb+re2uoJfXws2f/QWrXj+F7R77QfanuuL1uZmKrtUwMIGG66NcGWJSR1PmTMXkV9QmLZnYFpbmrVXRE2NDdRUX6u9u7o0N3d5ZRrrm6m+rkl7R3T58mXauSFb9ad2mjAzlpxc7LVPiHwC3Cg2JYhqaxq5TE862tvVeXUdu6y4RnslCIK5YfYCBzfsliaDa5suY8P/Rg8nV3fOJcG/g9HcWM8GHoZ+NEG+BOrg4RNAFhZDv6R63fv7O+zDZyij52YMBMoMteyVZLDzMsaUskDPIzLl2EPJZdGPO9S8F1PqYQpN9V0GH0IC20DYOzlT6tT5FJU8blTrUa+Fo0BHh2EzJvtQPp0/W0Levi6UlNEl3sbPiCV3TyfKPphPF/PLtb1dtLd3UHVlvfbO8F4QBPPEwj8kfnQt/hgCht/R2ZWqyorJwtKS3Lx8qK66opvAgBFa9uh3+fUnr/yB6muq+DWYf8cjFJM2ifau+4gObPmC942btZgyZy+hves/Vp9NVEYmVN3YLdgQFBecpbXvvET1Ws6Cfmx3L19+r2N8PJ0pi26jtGnz6dC2tbRn7YfaXgOBEbG06N6nqKaylD5WddTr7+TiRnNue5iCo+I6jUujGnHv37iKju3Zwu+NueXx7ymD6EfbVr1DGTMWkad/ENcdHq7NH71Jpw/v0UoSJU+aRePn3kQOTi7aHqLaqgra8vFbVJBzXNtjIDZ9kqr/Haqtu8oOVA8dvT6fvPbnUQlXweDPvuUB/new9kDIBtfXRwmQgcpCoCx7+NuUn5NNbS0tFJcxqVOANNTV0uYP/0XnTx3l9zr4/rm3fqWzfUFbawsd2bmB9q3/RPWVLqMKoTLzpvsoOmVc53H7KmtKPWJVv5x18wNkbWPL73sCod1Xm0OYtre38m/A+LdjXN+ezLn1IYrPnMp9ct17L/dqi+GABOPWtnbV3+s5ydjZzZFKL1X1ElsIUd37xBwqvlhJL/zqU7K1s6Gnfnijqrcdvfy71b0EDpKLIX7gtenouEw+Ae7qftBADfWjO+AQBGFsYNZJxjDcTQ116hVGoh1qdFrHLmpjbO3sKU7doMGpQ7vUjbrLFY6ES4yoC3NPdiYmB4bHUEhMEgVGxVNtRRlt/+I9yjt+iDx9A8knKEwdz4HOaTf5y2rY2dHeRmWF+XTpXA61tjSRuzKsxsfTQd0iEjPJ2dWDzmTt7wyrgcSJMykoIo6ydm2ki3mneZ9BPD2jbtIhdOrALtr26dtUVlRAAeGxnHdRW1lGFcUXuaxOwrjp5Orpoz5PIStraypSdbiYl0MtTQ107uQRqlMCBsBATr/xHmpTRmu3ElsHNn/G4b2AsGgKjU1Rf5fTKQSRVzRr+QPU3mIou3fDJ9RYW0P+oVEUHJ1IVaVFykgWcdmeoD4OTs506vDuESeyurh70eL7nlKCyb+zPUqVAQ9Q9YhIylT9oJ5KC893ll36wNe57JmsA0q0vdlZNjwhna8F3gNHJSLjMiaraxvK3opDW9dwe+A6Q9xCIJ05tp9FCcB1QbKuq4cXZe/bRjs++w8fy1f1jZDoJDbS6AsAAmTJ/V+n8PgUyj99XInMf/G/vsERFKba2bisKfWoqSqjvOzDlL1/Gzk5uZKLqguuDTbU6eTBnVRZcqmXcGlW/UDv/8a/nYEIjkxQ9Q1Xf9uojru92wBhuDQ2NHcmBre2tqsBQ9dv0piyohqKSgykoDBvulhQQdEJQZQ+KYKO7M6jPVtOaqW6aG/r4GPpQgmvcXxBEMyT0fMpX2fkHjtIH7/yRzqnDMnZYwdo08o32Ij6hUZ2TkWHsTm2ezMbfWzF+bm8vy8QuoJwcPHwpoCIGG2vwQsVrgRLfW0lf49O8uQ55OblS0eV6NmsDHRxQR5/15ZP3uLP4zKn8b89sbS0VIY+n97963P06Rt/ZaO66vW/KEPaJbiQBA3Pw+51H9LxvVv42Ns/fZeNI7w0wZHxWkkiv5AoDgPuWfcRl4VXYN/GVXRkx3qysbVjkXM1gAh08+7eHqjPxpWvsziLTZ/Y6anRy544sIM2rHilW9n2jnZKnTqPRYQxNZXl9PHLf6DD29dyW619959UUphLzm6e5BccqZUiJURjlUh1p7wTR7jN9GNv+vANVY/mbgnmEIf+YVF0/sRRWv3vF/i4uMZr332RmhrreYaZ3pd0hlIP41yn1tZmNuiNSkDiPbbyogssvEeD7Z+9S2//8cf07l9+yud6NcF57Vhv8CZOnBnH4gazo/rKvREE4fpDBM4wqSwu7DYCrq+tYqNkaW2tRuY22l7TOHXEECKKS5vE/wKIHYieCzknqLbK4HLXRU9zYyOdzeoSPaBEiaj66gpy9fRWRs9D29sFRubZ+7eyl6I/aqsrOfyBvAqEwXR2fP4evfDfT3QLr8HAvfHrZ9kLY0xtZSl/l519VwLolQLCBR6ulqYmyj1+UNtroEi1B0KCOUf3sdcKXpNQJbpQFh47YwpzT7OXp6doAY11tZ3tD3Dta5XYsLC06HaOdTVV6rzbyF8JXYQWdQrOnKBXfv5t+vCl32h7iKJSJrCX7+zxA936EsRJdVkxe4PclRAzZqj1uJogdIqw17UAuTbIxUlIC6GgcO9+c28EQbj+EIEzhriQk02VpRc51IUwCohOyuR/z+Vk8b8AAgpCyt7RiW576gf01C9e7Nwe+v7vyN3Hn+wdHMneKH9Gh93zmou+Pw5u+ZzyT2dxKOuB//o1Pfi939Li+5/m0JzuBTEmPD6N7n3mF/Tkz1/orMe8Ox7tNwdktHF0cSU71RYQmD1DJLoXDRte26l2sbazp8aGOqpTQs4YiAV4OqxU+yJfazgghHho2xecu7T80e/Soz/+M93y+H9xfhXybYyBhwtthLYyvobYAsKjWZC5eV7bhO2xju7FaW1pp4baJtq/zRDCFQRBEIEzhoABhkcGXhN4TyBy/MOiWfRA/PQEyaUIVRzY9Fmv7dC21ZxQPRwQ4vj8zefp3b/+TAmDLdTa1EihStwsffAbdPNXv9vNqxOXPpnm3/kYWVpa0bZV73aucbNz9fvswbkeObR1Lb3+62dp5xcrOA/K0y+Qpi6+g+79zi85P8qY1pYWytq9qc9reHDrairW8oaE/inILaPqSiQLt1B5qUz7FgTBgAgcDWur4YeWRhPkYGAWVkhsEudrwBMA0QPxo9PW2kodbW2cT4PP9Bwf4w1GdqAw1FBAgjBCUO/85af0xm+/x4nIyLlJnjJXK0GUMH4GdVxup00rX+/MwcEGT4iezHmlaaitoeaGes6bQV6SMfA4YSq1Pp0aq0i3NTeRg6NzrxAePkdCbrtq3+ryUm3v8IBIRB4SFjZ89RfP0K41K8nWzo7Gz13a6dlC7hImWZUU5PZ5DSFyEKoShgZmQ+mrHQuCIFz3AgchDcz6sXFw4NwLHRg7ByNPxdUC+RXIt/EJCOVHGmDqsnFyMUC+AxKWEW5JmTKH62oMklcxVXk4YGrwPd/6GT30/d93OwbEUv6pY0rMdHAZHUy/7wnqg3CWlfXVEYwILRXmnSJbWzv2fBnjFxJByx/7Ls29/Ssc8oFQzD+TTbb29hSXMUUrZSAoMpY8/ILY81V8of+E8IHAtOkn/ucFSp++UNtjqF9e9kFuQ1tbe565By6oeiDXKXHCzF7hK7SfcTL3SMB39BWuHA0gKq/EOjiCIAgjxayniQ8VhIKCoxLINyicOjraeMrtzOX38b+WVla9pokHRcX3murd13RzjNQTJ87ghOCgyDieTotp4m1tLexRwD5nd0+e1dINK0tlMMZzkmlu1kE6faR7Ai8oLy6ksNhkClRGOTA8lhrqath7MfWG2yhj5g2ch3Pm6H42rjqYlo18lfMnj/Lf9wW8Cg5OrhQSncg5OEiYhScmNm0SZcy4gY1l1s71nVPQvf1DePp4kDLGCF0FRcXRxPnLKTTWkK9Tob4nN/sQl8XaM8mTZlOIamucO2ac2do78mf+IZG8D9+PhG1TqSkv5fYIVtfGxc2LGhtqOTdoxtK7lHhwoP0bPqHSi4Zwj3FZ74Bg1XbVPC172uI71DWz43WIigsMAkefno0ZcnhGkzFYRgDX0bg9IT7D41NZoDg6u1FzUz35qOs+ddFt5OEbQPmnj6nraUgmLy++wP0JYUj0EXwH8qrGzV5CkxbczFPtkTSNNjG1HjoQwaFxyeo6BRvWgvL04fWbsGTBaEzpnnHTPbxScmhMMvfja/GMNTsHWxo/PVadUxs/v2q0wNpDd3/zpxQ/froSqIc6p9ALgvDlQASOAoYP4iAgLIYiEtM5TwLrsmAqOIzMcAUOHvA5c9l9FJmYwTNqIG4A/sV7bA7Orr0MFtajCYtPYYG0Z/1H3WbN6GB1Ziyq5ukXzAIHxg8L7mH2FNbR2fjBaxxqMWYoAgdg7RUkMQdGxPADQvFQTAgePFphn6oP1lHRuZSfw4LCPySC1+BBG0IQHd+zmddnwXRzLCDY0dFOYcroT1ECDGIS527v4ERWSkD6BUd0tkedOteeawQNBbRHwdkTPO06TBn0xPEzWKDhOiDMdvrIXq1kV1kI2JCYRG4XlNXPD9PHdUwVFrh25Ur84VzQZqhHTMoEDjViJte2T9/pXIsJ/2LNJCcXd+5XMakTKT5zGnn5hahrcJrWvP0PFq5guAKnvKiQp60b1jBKVv07g2eIYW0iXcSNhCuxDo6pXCmBo7c5QsI918gSBGHsY9YrGZsKwgRunr4cFroWN+rhotcbwqKytGjU1jgBWN3W1sGBGpWhHahN9Dpg+jWmDY8UfeXenuvAGJNzZA+tX/Gq9q4L/A1yaVoaGwetiyllTUU/NoTmYCsCwzOGhQchCKsrSpQxHd3VdfXrA4/cYHUxFfQRLBJ4raaKXyn0FaEhEpFLNZptJgjClUcEjjAmQW5HwripZGPT/9ouxRfOjcqjAQShLyYtvIUyZizs8/EpgiCMfUTgCIIg9AAJ8kvuf5rsHZ1p1Rt/GfGMREEQrj4icARBEPoASfJIzB7NkK8gCFcPmdcpCILQB8i5EXEjCF9eROAIgiAIgmB2iMARBEEQBMHsEIEjCIIgCILZIQJHEARBEASzQwSOIAiCIAhmhwgcQRAEQRDMDhE4giAIgiCYHSJwBEEQBEEwO0TgCIIgCIJgdojAEQRBEATB7BCBIwiCIAiC2WHl7Ob9nPba7LBzcCJ3bz9qbmzgh+Z5+gVSR3s7tbe1aiUMuHr4kIunNzm6uHVuFhYW1NrcpJUQgJOrO7l5+ar2a+vVhmMVGzs78vQNJGsbO2puatD2fnkZap++0jg62ZG3vxs11jeTpaUF+Qd7qHp0UGtru1ZCEAShN7CtvoEeZGVtpe7Jrcr+OpGbpzM11DVrJUYPs36a+LhZiylt+gL65LU/8/tlD3+bjmxfRwe2fMHvdW55/HvkHxqpvTOQc2QPrV/xqvZubAEjN33pXfx6+2f/Ucaunl/rTF96N7l4eNGOz96jmspSbe/ImX/HIxSTNon2rvuoVxuOVWLTJtKsmx+gsksX6MOXfsP7MmYupLDYVH7dpsRa6cVzlH/6OBWdP8sPWBzLDLVPX2nm3ZROMxen0Eu/+ZzfP/69JbT1iyzasOowvzcmPi2Eps5LJDt7G+ro6KCcrELasjqL2pUg6glufonpoTRpTjy5eThSXW0THdp5hg7sOKOuTfdbFcqOmxZNGVOjyVrdLNva2vstC5bfP4UCQ720d93ZtSGbDu/J1d6ZTni0H81YlERevm7q99hCp45e6PccY5ICaercRDWQsh+0PYaLlZUlpU6IoJJLVVR4vlzb2z8+AW50492TqKmhhT5+axc1KOEKZi9NpYS0UH49ECeO5NPmz45q77oYSj08vJxp/s0Z5O3nNqrtERnnT/OWZajBjZW2p4uq8rpu5wlc3R1p5qJkiogN4PdFhRW0/qNDVKnKjgRT+jQGDuin7qpNetKmBg8bPjlEuaeKtD2mYdzOoKy4utf5efm40rL7J5O9g622pzfG9RhK/7iYX85trQNB8+T3l9KF3BJ6+8XNdO8Tsyk40pf+8evPlL3qbstGill7cALDY5RwiaJTh3fz+7iMyVScn0uXzp/h9zoXc0+rMrsoe982qi4v4b+rLL1EudmHtBJXl7C4VIpOHa8UbQ01N/S+4PaOTpQ5ewk5uXmwEOvpaRo3Zyn5BIbQmWMHqKG2Wts7ciKTMsjLP5gKc0/2akNTsHdyppQps5Vq96Xyogva3iuDl38QhcencVuePLCD9yVPnEVh8ank4u6l6uBDAWExFJ85lRLV/sa6alWnQi43Ety8/Sh50myytXNQfapY2ztyhtqnrzQwHmExfuomncPvx02PofNnSijvdNfNFzf2u746i5beOYHcPZ3Iydme/4XgSVFG78SRAjaoOih/52MzafEd47mcnZ0t35RTJ0ZQaKQPZR/Kp/Y2g9GDWHr02RtoxsJkcnF1IGcXB3VzduHjRsb707H95zrL6ixYnqmMlx95eDv32i4q42tcd1NYeHMm3aHq7RvgTra2NuTq6UjxqSGUmBFGp5Sx1s9Rbw8ICXi/HB3tVP8zlE2dGNmrPYYDhNbND0ylW78yjZLHhVO+uiaXLlRqn/YN6nXHwzMoKTNMiQFrOrjrLI+swdS5Ceo8QvtsM+OtvrqRsg6c478BQ60Hrsfj319C4aovOSjj7q6MX3/9w1Rw7GnzE5VBd+1V357nyfX4ryUUmxykBpA25ORkTyHK6E6cGUeVZbVK7Azchv1hSp8GDuo3Mu+mDAoO9+pVZwiw3JOXBr2efZE5LYYe/c4NFBzhw/3Oxd2BwqJ8adKseKqqbKBLBRVcztPHmUUh+nLP79c3Z/V7O3G4gEqLqofUP5pUGx9UYk7HTomn8dNjWcygz6SMD2fRs397Tuf1GC3MXuB4B4bRyYM7yNLSiqJSxlHu8YO9DBhCFxAC2Nw8vNn4VZUWXTOBM2HuUkocP4PKLp6n8uLextbWzp7ilEEGpw7t6iVwEsZNVzcLZzaCY1HguPv40+zl96sfmXen6LhS9CVwcB4ItW1a+TqteedFOrhlNYd8giPjKDwhXd2sK0csvMJikmjKDbepfmc5qv1oqH36SgOBExTuTfu2niZLjNInRVLWvrzOGyWYcUOyGhGnsvD5v//5hNZ+eIC2fJFFXsrgRMUHqJu9DWUfztdKq5vwlCiae2Ma5eeWdSvvG+hOCelh6ho2Uf7ZEi67/L7J7BmA1+VvquzGTw/T7s0nlaH0Z2PV2NCqvrdLWOIGOmVuIntX3nx+A21bc4x2bzrZueUcvzis8BoM+U33TKJaZeCf/+Wn9Nl/9rInw8bWWgmGcCV4LNlQA/38Si5V019++hGt/mA/l/X2daHoxED2Qp3UypoKRt5f/8lNNHtJqmpfN7JUhhXAgA5mECfPSaDpCxO5ryJMYGxoYIDWfXSwc0MYEnVd/f5+evE3n3fu18WNKfVwcrGn+782TwlUR/rwXzvorec30ibVHhCq+A4X9bmxaDIVCMy4lGDaujpLHX9nt+t9cOdZFi7AxtZKCc/Z5OntYlSPIyzKkpXxDQzzoqOqb7e2tHF5UzClTwOIsSlKNKCPvPrHNd3qvHfLaTqvyvYU7oMREOJJdythfVn996+/rqMPXt9Omz49QtVKYMSnhfLnR/bm8vmhH6NPGl9zfUO/SB4Xxh6fNSsPqL5wuVf/MN6sVbuGKEGF4xl773SBU3yxivs7BA5+L9vXHtNKjB5mn2Tc2tJMLU2NhjfwBvbhuh4uyEnxDlTq1SdAKfWBm9LSyprFAcrj764lyDkaSj2Qv+IdEDKk8wP6cfHvaDPUOqOeqC/qjfoPhY72Njq6cz2tffdF6rjcTplzlvb5PXp7mHLsoaIfG30EfWUghtOng6PiObzl4u6p7Rk5zU1t1NhoMIQWqEOPemAkjvyg3Ruzqb7WIMIRdsCNrEkJkOAIbzYuOhBJOMSW1Ue7ld+98SS1tLSyoMGIGG58hBEa61to2+pjnaEM/M3uTSf4xhsR58f7dJTt5g03cIgZ3HCNN+NQhSkkqRu+g7OdElenqEyNaAHCDnu3nKTaqgZlqINZXIGYpCCysrZUovAU1ajPAMru2JDN7RGkDOlwsXe04X+3r8umXz3zDovNoeChjPrsJSlUVVFPVeUjDw+YUg94EDyVmIHR3rfV4AlEe6xeeZBDSBFx6nesDH5fIPQ1aXY8b3jdF9gPo114rqzX9S65WMnfBcKi/Mg/xKNbPcDp44V0Tolk1CEuOUjb253B6jHUPq2D/mGh/isprOxVZ4R6huPhiE4IIGdXew79oe/r4FyLlOh09XCkgODB7wuT58ZzXz6066xq14EHA+hXGerc4eU5fui8trc7xuEoXAv9eowmZu3BqSi5ROdPHlU3mgp1A6mj86ezVMc5xzfd/tBH/AN5cALUKHrZI8/QxHnLKGniTEqePJvSZyxUitWOLuadViW6LhQM7sQFy2nxfU9RypS5lDRhJqVOnU+RiRlUfCGPPQsAuSK3Pvl9mrTgZs3IWVFkUiZNmHsTb6nqbwvOnmCPjKkeHAiDu7/5UwqKSqD0aQu4Pqh36tR55B8WQ4XquDCaOqjz1EW30Q33PKHObQ6fH8I3SCZ1cvXo5cGJTZ9EN37lOzRu9mLt/OZyeKattVm1d1fnRq7TnFse5DLWNrbk7ObReX7Y3L18e7V5SEwSt/X4uUv7bTsdhPaWPfodypy5iM8vffoCdcN1YaPeUNvdgwMRhL5h7CGrqSzjXCyf4HCqKSuh0osG7wJCagvv/irNXv6gOq9ZfOyMmTf0ajuIotuf/hHNuPFuvna4hriWxud4WfU947aDsJlzy0M07/aHuc2SVDuj3n31JTCcPg3htPi+r7Fn0sM3iE5r4a2RUKxuwNmHC3gUjBs3vBQFeWXdRpcYvRco43J03zk2NDpwcSOk1drcpkbSZ9hzAtEyc1GKag9r2rHuOAsRHQ8fZ0pSo3G0Z9b+c+om36KE6GU6e/ISnT52gQWNTkCwB7vMa9TfG7vFvXxd2VOB0afx/pGCHAQ3ddM/vOtMNw8FQmhpkyPZsBzbn8fnc/zgeVr/8SE1Yu+eF+fm6USZU2OoXo3m9yrxMxxw/J3rs+lU1gU2ghgVw0swkAcHhvXm+ydz2GLdR4f5XzBQqACeO3hXzmRf7DOkZ0o9IA4RnkMYDzk8OghLRanv8FN/l3uyiI1kT2YpUQYvXoIS0Uh079mmYNKsOA4FwiD3dQydpMxQzpEpOFPC/UsHggWiNCTSR4mkvkOYA9XDtD5taG94NuE1Oq+OM1xvXk+QVlhX08Q5P7qw1kEIzsXNga/PQG0Eb9uSOyfyQGDV27u7/Z77AqEvhCa3qgFIjhKKxrSo3z2EFsJt+O2fzy2l7IP51NgwvEHGQAw+LP8Sg+Rb5NIgcRSj9EplHFqbR9aIfiERytg9QfYOTnRg02e04u+/pK2fvM25MhnTb2ARY8z4OUspY8YNVFNRRmvffYk+evl3lKeMuIdvIC2467FOT0HeySP04Uu/5eOdyz6sDEUr7Vz9Pr/H9vErf6SK4i71PRwwileDA1r3n3/S5o/+pdqjiEKiE2jubV9hUaOTqUb6KVPmUVN9He1a/QF9+sZfqUwJFZ+gMK1EFzGpE2jmsvuV4W7jdkBd92/8lMMnkxbeShEJ6VpJog0rXuXP0Q7wQJQpAaGfH7Zda1ZqJQ3g2Dfc86Qa1djQtk/foZUv/ppO7t+h2s6/W9sBXJfZSjzZ2TvSiX3badWrf6KjOzdwnfH3Q6Uo/4wyzJbkpUQBgBBbeNfjqp2S6dzJw3z90B5ISEZ7GrcdRNTqt/7O54Jrh2uIa2l8jsf2buWyAMeG8IhJm0D5Odl8bLRNfU019yVch54Mp0+3qXq0q7IYITXUVml7RwZudPooGCNSuJt7GkUYSrin9ZGrTnRikPr92HDoSvecWNta86yK+tpmqlU3Y53pC5Lo4W8t5PwDRyclitWNFqNHGFFsPUeSkfGBPAo+rYymMRAhMFgIi33zueX0P39/kH7853s4vISb93DB8XCTxvnrwFh+Q30H8hhsbKw58bg/IDKmzUtkz8fZU5e0vVeHtEkRSmSEs4Htb5R9JWlX7Yb+Y2vkxdNpaWzlARX6SV/ASHYow93W2qH6S5dwMMZJGW6EZSYqoYNrjWv+tf++iT2Lxtiqa4jwnPE1RH978gdLabwS4qA/T9JA9TClT+ugL6L/eikB9Oz/3s51/v7v7qS5S9P69BANhYK8Ug4p4V9jkHDv6evC3jt4rwYCISUkJ6Of9Pw99wTnMGGmIccGob2e4Jrj3qH/9lGuvLT7YHW0MGuBcyXwDQrnH0PWro20b+MqNtLH926h3WtXqo7eRqGxyVpJA8HRiexhgaA4e+wAXTp3Rhmxf6rRwjFydvOkoIhYLgcjVXapgI/X2trMnaCxtprfY0NOCAzaYMBoWlv3HeLAMT7852+5HieUUPj8zb9RdUWpEgHhFBAezWXgrYCwaG1rpo0rX6fD29dSQc5x+vyt5yn/dO8YqV9IFHsw9qz7iNsBdUW7HNmxnmxs7fj8dTCjC5/jO2GgMYNJPz9s9TVdNxicR+q0+Rwy2rDiZTq2ezMVF+TR5o/fpFMHd5Orpy9FJY/TShMlZBq8Vsf2bOYyF3JPsmDCjK/2jqHnVtRXV7EwsbM33HQwGw3J3BA+G95/ja8f2mPdey/zeXj4BZG7jyEcgnOC+MC54NrhGuJaGp+j8Yw3tLN/WBSdP3GUVv/7BT42rg1CZU2qXHTKeJ4xN1LgjXznLz9R209p08p/aXuvDZitM21BItXXNdPerSe1vb2BB+Sex2fRjUqAIMGzWt2ELZTBM/Lm9wKzk1KV0S4rrqFDu89qew3AUMJghkb5cB2Ak6sDj7Af/MZ8/r6RArGy+I4JdP/X5lKdGq2XFuGmfVn9HrtXGiP7e56YTU/98Eb60R/vpvQpUWwINn7SewbalQKhhgU3Z6qRfSOt/fCgtvfqUl5SywLVL9ijW6gS18LDx0V71zcQt7/67rv0m++toMO7+579BvFpb2/LgsbG1oYs1FeERfvSA1+bR+OmGYRLX8SlhtA3f7qc/AI9KCfbMKjsT1wMpR46Q+nTutiKTUFo05H3uXu50KI7xtOdj87gPjYa4DhIjnd0smcP10CiBfVOnxypyjTSYVV2MFLGR3Ae1cmjBg/vtUQEjolk7d5Er/3qGTbixlQoIwLDCKNuDEbMNggpZUzhcASAIfz8zefpnz/7Bp0+spf3jRZ2Do5krb6vL9paW7uN9murypWxziZbewclVMJ5n5cy2I5u7lRZXEiFuQiRGECdO/M+jNj+2bv0xq+f7ZzVo1OrxIyxUDCVoMh48vAO6FUPUHA2m8Web3AEv4cY8gkK5UThs1kHeJ8OBAXCQsMFHpJ3/vRj+viVP6j265rRATEGDxfEpCkeImOiUibQZTX8O3v8ALevDoRudVkxe6jcvX21vSMD1x3HNP6eqw1ulLc/PINc1ch67cqDfYYVgKe3Mz2tjH/a5Ch27f/77xupZQgx/1semMavP3pzJ48Kjck7XUzb1LFWvLKNfvzEv+gnT/+Lfv/DDzhvJjzGl8NXOgjDfPX/LWYB0nN7+DsLOZG2Jw6OdvToMws5nwWJ08//YhUnkPYFRugQWch7cIaX4TKp30rv6zKcegyV+cvSyEMZToTMrpURysku5OnjgaHeHP6AiMDoHwmxECKDgWvc8zrrwIAjPLJdXfNfPfMuX++fPPkmbfz0CHtV5tyY1ttzp/4GM4ge+sY89sz84zefUe6Jwb1qA9VDZ6h9GqIACfCv/HGtqq+hn77yhy84fJmshENiZqhWcmRA3Manh9JJ1Vc39rG0gzFpEyM59IuZU8aTCPoCQnXirFhqbGyh3ZuGF24dTUTgDAOEQ25/6of0xM9eoKd+8SJvdzz9oz5H2zu/eF8ZrHxKnDCTHvnhn+n+Z/+XwxqY6jsWaKip5JuBJYY3CicXN7KytFICpXzIxhA5S/c+8wt68udd7THvjkdZeAwXCCOMbvxDo7sdF9vCux/nY2OaN5fVRB28HvUjDcGotug5SoJXa97tj9BjP/m/bvXouXaSqUAM4zzQVsbHxQaPmpUST5jGbg5A3DzyzA3KcPkpI3OUk4H7AlNpH3t2Ebmo0eu/X9hEq97ZQ+0dAycfQtx8Vf0Nclk+fnNXt0RKHeTefPHePtq3rUssQ9xgtgfEBaZI62B9GngVIEB6bsgLsbXv7iG1s7OmB781n2dwffruXmW8NvWbwwKQi/HX5z5m4/XTp9+krH3nKGNKFE+rNsbUegwVnGvmlBg6nXWB8zKuFfDeQIwiGRthm1+/+gg997f7Oe8Fs4ja2juopqrv8NNgwHt6dF8ur79inNC95oMDVJBbwjOmouIDeb/OjAWJtPCWDM4ne/6Xq3jpgNHAlD6NZOJP3t5Np5TQ0UF/3r42m8VDckbvNAFTWXjLOJp7UzrPMnznpc3cLv2B7xw/I1YJvnY6tHvwvpIyLpz8gzzo3KkiToq+1ojAMREYnsX3P03O7p50cMvnnbkVel5JT+Al+eCF/6WP/vk7yjm6h/fFpE6im7/6LC24+6udXp0vK3Hpk2n+nY8Rcm62rXq3sz30HJSRgrAUcp362rL3deWzjBbwYMEjU11u8C7g+iy650mKThlHBTlZnCejnyNCTiOltaWFvYJ9nd/Braup2ChJ+8sKBOOtD07l6dtH1E0SoqI/rG0sOdnx77/8tNcMnJamtl7CAcLp7sdnkaevK0+/1dflGSrIu0AODcJXOlhD5xffetsw6u+x/fr/vddrFAuPQGNdM736pzU8+jY2GIMZaZzPmpX7qbqigdvH3atrkGRqPYYC2mv+8gyewov1epBnAo/QA1+by541bHiNEBpCaVcaePF+/8P3aeUbO9mbBOP/px9/SFhMrrmhlaoqRrbIXk9wbSpL4bHqHTq0tbdlAYRp4j1DNtU9knNNwdQ+3ReVpTXcJsPNw9FBaG7W4hSqKKmhd1/aMuh3I1SG2X3I30HC90Dgdz5+Zhwh6f/AzmsnnI0RgWMi8ZnTyNbBifau+7gzBwebnlfSH0X5Z2njB6/TW7//Ab39px9xGAIJuNHJ47USQwdhDWS2WVtZqx9P9/AI3mN/U2MDNdUP7np2dPXgHz1yXUB9bTXnrCD3xDjxuD8Sxs/gv8WaMnoODjY9B2W4NDc1qfPE1MF21c6f0t4Nn/TaMIOMy6pzbWtu4sRvJ5eBp5EPBDw1mImF4xXmGdyroTHJnKicn3Oc1rzzEufJ6OeIHKKRgNwlOItKCnL7PD+IHISVvszgpnfbV6azax5r1rz3yrY++wVc/AjpYLo01iLRp1wDJKHa2FipPt2iynSFWGGs7396LoczNn9+pF/hhJVsb394Ot3z5JxeYQl9Wu5wgaGA4UESp/EKsxj54nsxU6y22mAcsUItQk4IPRmDUAVEFtYCQd7IlQTTsh0cbdmwevsawmQGj5AHJ8Viw2uE0NA2VwMY2V0bs7kNsWaNp68zJ7+WFFVxPtVwQN7NE99fQplTDbmFxuARJ8YgRIdZQZjlhhCWcf+0V22F1ZUHC0H1hal9GknHyN+65YGp/Lvphnrfa5+JpE+KpOX3TeF6vfrntYOGJvF9WHEb7FTXZ7D7OWYvhkb4UL4SQ5iVNRYQgWMiVla9M/5BRHy6ukE5aO8MYHruwz/4A939zefYeOpgim/h2ZPs9bB36juJFGuh2Dv1nWiH6dEVJReVOHGnOCW4jAmLSyNHZeTLlYCqq+4+LRPix9hjhBBPSEwie56KCwzTIzFtuqG6ipNngyINCdAAYge5Oj3pebMAKIvp3YPlpmC6e39JtMUXclX9K8jLP5Sn0BuDc8B0av1ckBtTWpjPoSosfGcMjm/RzzUzBu2NR1wgYfj8qaMsZEB/1xuePDcvb+1d/9g79Z8nceFMNn8vwpfG1wWg/YIj47V3I+dKrIMzFBDrh4sbM6Y+eG1755o1fYFZRLZKtMSndJ/lgllXLm72dCm/a70a3HzhFYpLDaYju8/yyLu/GzAECLwRaRPCOQHSGKxDghlMCA0MhzMnLqm6KIOqRrrGYGVeGOmK0loOtwB7dW7RiQEUndA9NOLj78ozaWDojKcSXwng9YH3p6dH6Pc/+oDrig2vEUK70nXpC4hVCGLITiTw9gc8GQOtPwPBEhTqzYtNQgjrQLiFxfhSY0NL5zXPyynhZGssXKmvWQTwd5gSD4FyTpXpi8HqYUqfxjRpCNCMadHcT3TQ11NVv7W0sug1E0oHXhYsKNjfWkrwDi5/YAoPXt97ZWs3sdUfWBEcC/UVX6zkcOZgjMMjU2wsORF5JIPb0cSs18EZKkgAjkrKVAY9jnyDw8nTP5jwQEkYA+zz8AvgKdodqnM4urpRaHQy+YdFskDwD4mkDGU44tInqg5oxaJCX2+lsb6OH4aIY8AT0NRQz0Yda8vAqLU0N9Ohrau7zR4CMNShccnkreoBAYE8jBhl5FtbmjrLVqmRfURiBoUow+UdEKyO1USZMxZR6jQkyDXQzi9WUJ0SUgAPD8WS/qhvYFgMe2l8AkNp1vL7ycPHn/JOHOYp1XDbQizA6IbFpiixlEJ2jk7sGZm57F4KUt+FH5vxOjje/iEUEBbNScHI3wmKiqOJ85dTaGwSC50KJZh6rm0DQRWekKYMQJD6QftTW3sbRalzwSq9+nFRD8w+g0clPD6VHJ3d1Eivno+Leseq82lT7QfPGKhVYigiMZ1XI/YJCKW2jjZKmzZfbQvIWgkt4+uCdXBwjZGoDBGaMGEGzbjpbr72F/NyaMP7r/L1B7ghwMuGa8F9wyeAn8c1cd5NvMYOwnB9rRiN6wGxhfZ1dVdCSN38YlMnKlHk07m+TnnxBcOjF1T7havzRP/AYzjGzV7C6yEhTwurFBuvUTQcrsQ6OEMB7vDFt4/nGzjW9MDCbjDuxhs8CXqORHlxLSWqkTdWV0XyLdYVwXoaSPxsVgYLuQnVlYayyCOYMi9R3aireIor1g8xPm5ErD+vhaOPjvEdWHclLjmYR86trW0058Z0mjwnnhqUsftixd7OY5sCPAyR6rshtLAiLPJJ4lNDadk9k3lGDFYrxmJqAKP5xMwwVb+gzvPDarbL753MS/TDC3V2CEmtQ2Eo6+AYo68uC0ayDk5PhlIPeBZueWgazVMGesaiVPaaYHkBrN7bH4Otg4NFC/2D3DnEwn1BXZegMG8liqfxlO9jB87Tni0GLy3W3XFwsmcPRJwqj2ndbl5OLLQw6w4z3HZu6FtsDVYPU/o0QjuYbo71cVAPePbgCcRSBglqX3lJDX323v5e1wbr2DzynRsoTbUj8sCO7Mllj6AOctQwcwzhR4Q9nVwcuv1WsOHxERfzu4c8b7p7Ej9Ed8OqI+q8Bp5GHpUQoARWOpUo4YTVvE1dbflKIQJHMXPZfbxYXWBErGGRPWWYsQgd3mNz8/Kjs1n72eDCU2Bpba0Zpij+HKIF05PdvPzVzdOWPQAIc0AwXDh7gpxdDceKUQYuYfx0Nlzwwmz+6E1tMbfuYNl9Z1d3Fg6Ydg4h4xccqURNERUXGKYiNqq/h9AICI1Wx47jXBjvwBCqKimi9SteUYa/a8qiLnCQOAxvfPr0hTwFGd6j/NNZPB1cN+ig5IJh4bjg6AQWZ4bp2BZcFu1jLHAu5eeoHxiEXgQFhMfyc52g3o+r9vBWQgOC6PThPSwOdfAawgfH9wuNpJiUCSye4OXKyz7cadAxrR3CEt6SkOhEfnwFEppRl71rV2qizADaAwve4ThoXxwTi/mdUdcNwg6L4hkLHH3VYFwXD28/deOpoyPb19LWVe9Qe2vXDQR/h8X10MZ+wRFc3kuJVtQTQs1FCZbyiwWdokUHn0H0BEclqPrHcH3wr7WdHZ0+ZBAYaONzqq8grIb+hP6BEKiXXwhdOnea1rz9D+4nI8VWCeZYJcqQ1Izp7hC0V4M5S1J5tWJ4LjCChBDouVWW1XUaShiavBwl3NVNGsYGo2LcOOtqG2nFq9t5YTAdTMfGc25ws46M631ciCmsYKsbVRi8ogtVFKOMM5JscewQVTcYl/df635sU8CNHKNbLOcPI4eF07AODtZ4gbjZt60rJ0ivQ5QaGeOZR6gDysIYQWDtWNe/x8JUvkwCB9cD66ZYWluyIX33xc28AORAoL1jk0O4/bEkgC4ijUFyLtY/gliYMCOW0iZGqMGaLU+LRnKzsRFGeBEhRTw4Egnf8EZgmjamfuMxD/0Z7MHqYUqfBvCwNTU080KHEH4TVH9C+yFh991/bunT84JHfGRMjVL3YUeefo48NOPFLyGwMqfBu6Lslqpvz98KNvyt8SKTWCNn7rJ0/n1AsAy2sB+enxUa7UPb1hznBTjHCmb9NPErCbwcGJ3DSMGbMtiMI3gz3JUhtbKxYaHR8wngfYGwBR5ICfEx0HcgDIOcGRj5nt4ggJWM8dTpytJifqI2ph87OLsOWg/9HDHFeLCnkut1bWlqGrSsMXgEg62Dw6B10evc0tg46PFxTNSnsrRIXZ+R5ckYw3W1t6fqihJuk6HQed2VKB7o7/S2hiA05fhDBe2B0GVN+cC5YmMFhJQgYLBA2nDyHwYCYQgXV/tRPzZCGlgxubmxddCFy/TzQ/jjSi1yZu7o4aTBriFCRxAJoORi1YBhUvz+fALc1d9YDFpWZ6j1MLVPYxkAhE8xCNDDWP2Bc8Szv8qLq4dU5+sFETjXAT0FjiAIgiCYO72zogRBEARBEL7kiMC5DsC0ckwbb22++rMiBEEQBOFaICEqQRAEQRDMDvHgCIIgCIJgdojAEQRBEATB7BCBIwiCIAiC2SECRxAEQRAEs0MEjiAIgiAIZocIHEEQBEEQzA4ROIIgCIIgmB0icARBEARBMDtE4AiCIAiCYHaIwBEEQRAEwey45gIHT7q+65s/pZnL7iUbOzttryAIgiAIwvC55gKnuryY8rIPUWz6FFp839fI2sZW+0QQBEEQBGF4XHOB09rcTHvXf0Jnjuwlv5AIikxM1z4RBEEQBEEYHmMmB6ek8BxZWFmRX2i0tkcQBEEQBGF4jBmB09baTJfb28nO3l7bIwiCIAiCMDzGjMARBEEQBEEYLcaewLEQzSUIgiAIwsgYM2qi9FIBNTc1krd/MNk7OWt7BUEQBEEQTMfK2c37Oe31NaWpvo5s7ewpPCGNIpPGkauHN9VUlVNzQ71WQhAEQRAEYWiMqXhQ1p5NlH/qGLl5elPSxJnkFxSmfSIIgiAIgjB0LPxD4i9rr68pWOBvyQNfJ9/gCDqweRUd2bGROtrbtE8FQRAEQRCGzpjx4GCRP++gUCovyqfD29aLuBEEQRAEYdiMGYHj5OJGVpZWVFtZTpcvd2h7BUEQBEEQTEfmZAuCIAiCYHaIwBEEQRAEwewYMwLHzcuPrKxtqLK0WNsjCIIgCIIwPMaEwMHCfuHxqdRQV0PnTh7R9gqCIAiCIAyPay5wAsJj6M6n/5tcvXzp0NYvqLzogvaJIAiCIAjC8Ljm6+DAexOZkEHnTx2l+tpqba8gCIIgCMLwGTML/QmCIAiCIIwWMotKEARBEASzQwSOIAiCIAhmhwgcQRAEQRDMDhE4giAIgiCYHSJwBEEQBEEwO0TgCIIgCIJgdojAEQRBEATB7BCBIwiCIAiC2SECRxAEQRAEs2PIKxm7eftRdMp4srK04vfFF87x4xUEQRAEQRDGGkP24PgFhVHmzEU0bs5S3mJSx2ufCIIgCIIgjC2GLHBOH9lL//zZN2jDileorbVF2ysIgiAIgjD2kBwcQRAEQRDMDhE4giAIgiCYHSJwBEEQBEEwO0TgCIIgCIJgdojAEQRBEATB7BCBIwiCIAiC2SECRxAEQRAEs0MEjiAIgiAIZocIHEEQBEEQzA4ROIIgCIIgmB0icARBEARBMDtE4AiCIAiCYHaIwBEEQRAEwewQgSMIgiAIgtkxZIETEB5DN33lW5Q2fSFZWllrewVBEARBEMYeQxY49k7O5OEXSC7uXtTa3EQtahMEQRAEQRiLWPiHxF/WXguCIAiCIJgFkoMjCIIgCILZIQJHEARBEASzQwSOIAiCIAhmhwgcQRAEQRDMDhE4giAIgiCYHSJwBEEQBEEwO0TgCIIgCIJgdojAEQRBEATB7BCBIwiCIAiC2SECRxAEQRAEs0MEjiAIgiAIZocIHEEQBEEQzA4ROIIgCIIgmB0icARBEARBMDtE4AiCIAiCYHaIwBEEQRAEwewQgSMIgiAIgtlhaWdrSdZWFmRhYaHeYhMEQRAEQfgyQ/T/Abk7cRNdXkCmAAAAAElFTkSuQmCC;" vertex="1" parent="1">
          <mxGeometry x="560" y="330" width="228" height="154.55" as="geometry" />
        </mxCell>
      </root>
    </mxGraphModel>
  </diagram>
</mxfile>
